<?xml version="1.0" encoding="UTF-8" standalone="no"?>
<!DOCTYPE svg PUBLIC "-//W3C//DTD SVG 1.1//EN" "http://www.w3.org/Graphics/SVG/1.1/DTD/svg11.dtd">
<svg width="100%" height="100%" viewBox="0 0 16 16" version="1.1" xmlns="http://www.w3.org/2000/svg" xmlns:xlink="http://www.w3.org/1999/xlink" xml:space="preserve" xmlns:serif="http://www.serif.com/" style="fill-rule:evenodd;clip-rule:evenodd;stroke-linecap:round;stroke-linejoin:round;stroke-miterlimit:1.5;">
    <g transform="matrix(1,0,0,1,0,-0.346474)">
        <g transform="matrix(0.33085,0,0,1.08908,2.39049,0.209218)">
            <path d="M12.857,5.984L12.857,8L2.643,4.897L12.857,1.794L12.857,3.807L14.838,4.927L12.857,5.984Z" style="fill:white;stroke:rgb(199,199,199);stroke-width:0.25px;"/>
        </g>
        <g transform="matrix(1,0,0,1,-0.0136807,0.262512)">
            <path d="M4.328,9.468C4.328,11.502 5.98,13.153 8.014,13.153C10.048,13.153 11.699,11.502 11.699,9.468C11.699,7.434 10.048,5.782 8.014,5.782L8.014,4.668C10.663,4.668 12.813,6.819 12.813,9.468C12.813,12.117 10.663,14.267 8.014,14.267C5.365,14.267 3.214,12.117 3.214,9.468L4.328,9.468Z" style="fill:rgb(176,225,255);"/>
        </g>
    </g>
</svg>
