<?xml version="1.0" encoding="UTF-8" standalone="no"?>
<!DOCTYPE svg PUBLIC "-//W3C//DTD SVG 1.1//EN" "http://www.w3.org/Graphics/SVG/1.1/DTD/svg11.dtd">
<svg width="100%" height="100%" viewBox="0 0 20 20" version="1.1" xmlns="http://www.w3.org/2000/svg" xmlns:xlink="http://www.w3.org/1999/xlink" xml:space="preserve" xmlns:serif="http://www.serif.com/" style="fill-rule:evenodd;clip-rule:evenodd;stroke-linejoin:round;stroke-miterlimit:2;">
    <g transform="matrix(1,0,0,1,-0.275879,-0.557602)">
        <rect x="1.242" y="5.07" width="18.067" height="10.975" style="fill:rgb(100,0,61);"/>
        <g transform="matrix(1,0,0,1,0.275879,0.553872)">
            <rect x="14.28" y="12.389" width="4.754" height="1.581" style="fill-opacity:0.6;"/>
            <g transform="matrix(0.670678,0,0,0.670678,5.56915,4.20409)">
                <g transform="matrix(1.6963,0,0,1.6963,14.8791,13.9666)">
                    <path d="M0.066,-0L0.066,-0.519L0.145,-0.519L0.145,-0.445C0.183,-0.502 0.238,-0.53 0.31,-0.53C0.341,-0.53 0.37,-0.525 0.396,-0.513C0.422,-0.502 0.442,-0.487 0.455,-0.469C0.468,-0.451 0.477,-0.429 0.482,-0.404C0.486,-0.388 0.487,-0.36 0.487,-0.319L0.487,-0L0.399,-0L0.399,-0.315C0.399,-0.351 0.396,-0.378 0.389,-0.396C0.382,-0.413 0.37,-0.428 0.353,-0.438C0.335,-0.449 0.315,-0.454 0.292,-0.454C0.254,-0.454 0.222,-0.442 0.195,-0.418C0.167,-0.395 0.154,-0.35 0.154,-0.283L0.154,-0L0.066,-0Z" style="fill:white;fill-rule:nonzero;"/>
                </g>
                <g transform="matrix(1.6963,0,0,1.6963,15.8225,13.9666)">
                    <path d="M0.421,-0.167L0.512,-0.156C0.497,-0.103 0.471,-0.062 0.432,-0.032C0.393,-0.003 0.344,0.012 0.284,0.012C0.208,0.012 0.148,-0.012 0.103,-0.058C0.059,-0.105 0.037,-0.171 0.037,-0.255C0.037,-0.342 0.059,-0.41 0.104,-0.458C0.149,-0.506 0.207,-0.53 0.279,-0.53C0.348,-0.53 0.405,-0.507 0.449,-0.459C0.493,-0.412 0.515,-0.346 0.515,-0.26C0.515,-0.255 0.514,-0.247 0.514,-0.237L0.127,-0.237C0.131,-0.18 0.147,-0.136 0.176,-0.106C0.205,-0.076 0.241,-0.061 0.284,-0.061C0.316,-0.061 0.344,-0.069 0.367,-0.086C0.389,-0.103 0.408,-0.13 0.421,-0.167ZM0.132,-0.309L0.422,-0.309C0.418,-0.353 0.407,-0.385 0.389,-0.407C0.361,-0.441 0.324,-0.458 0.28,-0.458C0.239,-0.458 0.205,-0.444 0.178,-0.417C0.15,-0.39 0.135,-0.354 0.132,-0.309Z" style="fill:white;fill-rule:nonzero;"/>
                </g>
                <g transform="matrix(1.6963,0,0,1.6963,16.7659,13.9666)">
                    <path d="M0.007,-0L0.197,-0.27L0.021,-0.519L0.131,-0.519L0.211,-0.397C0.226,-0.374 0.238,-0.354 0.247,-0.339C0.261,-0.36 0.275,-0.379 0.287,-0.396L0.374,-0.519L0.479,-0.519L0.3,-0.274L0.493,-0L0.385,-0L0.278,-0.161L0.25,-0.205L0.114,-0L0.007,-0Z" style="fill:white;fill-rule:nonzero;"/>
                </g>
                <g transform="matrix(1.6963,0,0,1.6963,17.614,13.9666)">
                    <path d="M0.258,-0.079L0.271,-0.001C0.246,0.004 0.224,0.007 0.204,0.007C0.172,0.007 0.147,0.002 0.13,-0.008C0.112,-0.018 0.1,-0.032 0.093,-0.048C0.086,-0.065 0.082,-0.099 0.082,-0.152L0.082,-0.45L0.018,-0.45L0.018,-0.519L0.082,-0.519L0.082,-0.647L0.169,-0.7L0.169,-0.519L0.258,-0.519L0.258,-0.45L0.169,-0.45L0.169,-0.147C0.169,-0.122 0.171,-0.106 0.174,-0.099C0.177,-0.091 0.182,-0.086 0.189,-0.082C0.196,-0.077 0.206,-0.075 0.219,-0.075C0.229,-0.075 0.242,-0.076 0.258,-0.079Z" style="fill:white;fill-rule:nonzero;"/>
                </g>
            </g>
            <path d="M19.034,12.389L14.28,12.389L14.28,13.97L19.034,13.97L19.034,12.389ZM14.38,12.489L14.38,13.87L18.934,13.87L18.934,12.489L14.38,12.489Z"/>
        </g>
        <g transform="matrix(0.734087,0,0,0.734087,4.23254,4.12605)">
            <g transform="matrix(7.02834,0,0,7.02834,3.33183,11.2768)">
                <path d="M0.718,-0L0.561,-0L0.499,-0.163L0.212,-0.163L0.153,-0L0,-0L0.279,-0.716L0.432,-0.716L0.718,-0ZM0.452,-0.283L0.354,-0.549L0.257,-0.283L0.452,-0.283Z" style="fill:white;fill-rule:nonzero;"/>
            </g>
            <g transform="matrix(7.02834,0,0,7.02834,8.40747,11.2768)">
                <path d="M0.072,-0.716L0.336,-0.716C0.396,-0.716 0.441,-0.711 0.473,-0.702C0.515,-0.69 0.551,-0.668 0.581,-0.636C0.611,-0.605 0.633,-0.566 0.649,-0.52C0.665,-0.475 0.672,-0.418 0.672,-0.351C0.672,-0.292 0.665,-0.241 0.65,-0.199C0.632,-0.147 0.607,-0.104 0.574,-0.072C0.549,-0.048 0.515,-0.029 0.472,-0.015C0.44,-0.005 0.398,-0 0.344,-0L0.072,-0L0.072,-0.716ZM0.217,-0.595L0.217,-0.121L0.325,-0.121C0.365,-0.121 0.394,-0.123 0.412,-0.127C0.436,-0.133 0.455,-0.143 0.47,-0.157C0.486,-0.171 0.499,-0.194 0.508,-0.226C0.518,-0.258 0.523,-0.302 0.523,-0.357C0.523,-0.413 0.518,-0.455 0.508,-0.485C0.499,-0.514 0.485,-0.538 0.467,-0.554C0.45,-0.571 0.427,-0.582 0.4,-0.588C0.38,-0.592 0.341,-0.595 0.282,-0.595L0.217,-0.595Z" style="fill:white;fill-rule:nonzero;"/>
            </g>
        </g>
    </g>
</svg>
