<?xml version="1.0" encoding="UTF-8" standalone="no"?>
<!DOCTYPE svg PUBLIC "-//W3C//DTD SVG 1.1//EN" "http://www.w3.org/Graphics/SVG/1.1/DTD/svg11.dtd">
<svg width="100%" height="100%" viewBox="0 0 20 20" version="1.1" xmlns="http://www.w3.org/2000/svg" xmlns:xlink="http://www.w3.org/1999/xlink" xml:space="preserve" xmlns:serif="http://www.serif.com/" style="fill-rule:evenodd;clip-rule:evenodd;stroke-linejoin:round;stroke-miterlimit:2;">
    <g transform="matrix(1,0,0,1,0,-0.840944)">
        <g transform="matrix(1,0,0,1,1.06975,0.199725)">
            <rect x="3" y="1.482" width="11.861" height="16.636" style="fill:rgb(104,0,52);"/>
        </g>
        <g transform="matrix(1.08836,0,0,1,0.431713,0.976239)">
            <path d="M12.921,6.462C12.921,5.848 12.463,5.35 11.899,5.35L5.658,5.35C5.093,5.35 4.636,5.848 4.636,6.462L4.636,11.586C4.636,12.199 5.093,12.698 5.658,12.698L11.899,12.698C12.463,12.698 12.921,12.199 12.921,11.586L12.921,6.462Z" style="fill-opacity:0.52;"/>
        </g>
        <g transform="matrix(1.057,0,0,1.28258,-0.854047,-0.475261)">
            <rect x="4.07" y="1.682" width="12.398" height="2.949" style="fill:rgb(138,0,76);"/>
        </g>
        <g transform="matrix(0.956654,0,0,0.39349,0.176396,18.1776)">
            <rect x="4.07" y="1.682" width="12.398" height="2.949" style="fill:rgb(138,0,76);"/>
        </g>
        <g transform="matrix(1,0,0,1,1.7486e-15,-0.693187)">
            <rect x="4.07" y="15.366" width="11.861" height="4.166" style="fill:rgb(86,0,52);"/>
        </g>
        <g transform="matrix(1,0,0,1,0.51686,-0.18951)">
            <g>
                <g transform="matrix(1,0,0,1,0.137705,-0.286087)">
                    <path d="M6.621,16.602C6.621,16.564 6.59,16.533 6.552,16.533L6.415,16.533C6.377,16.533 6.346,16.564 6.346,16.602L6.346,18.249C6.346,18.287 6.377,18.318 6.415,18.318L6.552,18.318C6.59,18.318 6.621,18.287 6.621,18.249L6.621,16.602Z" style="fill:rgb(195,195,195);"/>
                </g>
                <circle cx="6.621" cy="16.356" r="0.664" style="fill:white;"/>
            </g>
            <g transform="matrix(1,0,0,1,0.369687,-0.863281)">
                <circle cx="10.716" cy="17.884" r="0.434" style="fill:white;"/>
                <g transform="matrix(1,0,0,1,1.48879,0)">
                    <circle cx="10.716" cy="17.884" r="0.434" style="fill:white;"/>
                </g>
                <g transform="matrix(6.12323e-17,-1,1,6.12323e-17,-6.42301,29.3445)">
                    <circle cx="10.716" cy="17.884" r="0.434" style="fill:white;"/>
                </g>
                <g transform="matrix(6.12323e-17,-1,1,6.12323e-17,-6.42301,27.8557)">
                    <circle cx="10.716" cy="17.884" r="0.434" style="fill:white;"/>
                </g>
            </g>
        </g>
    </g>
</svg>
