<?xml version="1.0" encoding="UTF-8" standalone="no"?>
<!DOCTYPE svg PUBLIC "-//W3C//DTD SVG 1.1//EN" "http://www.w3.org/Graphics/SVG/1.1/DTD/svg11.dtd">
<svg width="100%" height="100%" viewBox="0 0 612 612" version="1.1" xmlns="http://www.w3.org/2000/svg" xmlns:xlink="http://www.w3.org/1999/xlink" xml:space="preserve" xmlns:serif="http://www.serif.com/" style="fill-rule:evenodd;clip-rule:evenodd;stroke-linejoin:round;stroke-miterlimit:2;">
    <g>
        <path d="M612,510C612,566.1 566.1,612 510,612L102,612C45.9,612 0,566.1 0,510L0,102C0,45.9 45.9,0 102,0L510,0C566.1,0 612,45.9 612,102L612,510Z" style="fill:rgb(86,61,124);fill-rule:nonzero;"/>
        <g transform="matrix(1.86314,0,0,1.86314,-161.495,-58.0072)">
            <path d="M250.333,92.904C227.093,108.819 211.829,135.556 211.829,165.831C211.829,214.582 251.409,254.162 300.16,254.162C317.945,254.162 334.509,248.895 348.381,239.833C331.794,274.147 296.642,297.842 256,297.842C199.403,297.842 153.454,251.892 153.454,195.295C153.454,140.6 196.367,95.849 250.333,92.904Z" style="fill:white;"/>
        </g>
    </g>
</svg>
