<?xml version="1.0" encoding="UTF-8" standalone="no"?>
<!DOCTYPE svg PUBLIC "-//W3C//DTD SVG 1.1//EN" "http://www.w3.org/Graphics/SVG/1.1/DTD/svg11.dtd">
<svg width="100%" height="100%" viewBox="0 0 20 20" version="1.1" xmlns="http://www.w3.org/2000/svg" xmlns:xlink="http://www.w3.org/1999/xlink" xml:space="preserve" xmlns:serif="http://www.serif.com/" style="fill-rule:evenodd;clip-rule:evenodd;stroke-linejoin:round;stroke-miterlimit:2;">
    <g transform="matrix(-0.998857,0,0,2.29651,19.4587,-20.6148)">
        <rect x="1.576" y="10.994" width="15.787" height="4.674" style="fill:rgb(235,235,235);fill-opacity:0;"/>
        <clipPath id="_clip1">
            <rect x="1.576" y="10.994" width="15.787" height="4.674"/>
        </clipPath>
        <g clip-path="url(#_clip1)">
            <g transform="matrix(0.917203,0,0,0.845097,1.51167,3.46922)">
                <ellipse cx="9.112" cy="13.313" rx="8.17" ry="4.408" style="fill:rgb(228,228,228);"/>
            </g>
            <g transform="matrix(1,0,0,1,2.61866,0)">
                <g opacity="0.2">
                    <g transform="matrix(1.00114,0,0,0.435443,-0.0198631,8.8454)">
                        <rect x="1.594" y="13.999" width="4.561" height="1.669"/>
                    </g>
                    <g transform="matrix(1.78027,0,0,0.940177,-3.22448,1.20287)">
                        <ellipse cx="3.979" cy="14.612" rx="1.282" ry="1.352"/>
                    </g>
                    <g transform="matrix(1.00114,0,0,0.435443,-2.63852,8.8454)">
                        <rect x="3.746" y="11.08" width="2.744" height="1.41"/>
                    </g>
                </g>
            </g>
            <g>
                <g transform="matrix(1.00114,0,0,0.435443,-0.0198631,8.8454)">
                    <rect x="1.594" y="13.999" width="4.561" height="1.669" style="fill:rgb(228,228,228);"/>
                </g>
                <g transform="matrix(1.78027,0,0,0.940177,-3.22448,1.20287)">
                    <ellipse cx="3.979" cy="14.612" rx="1.282" ry="1.352" style="fill:rgb(228,228,228);"/>
                </g>
                <g transform="matrix(1.01908,0,0,0.6865,-0.284374,5.25264)">
                    <ellipse cx="3.979" cy="14.612" rx="1.282" ry="1.352" style="fill-opacity:0.5;"/>
                </g>
            </g>
        </g>
    </g>
</svg>
