<?xml version="1.0" encoding="UTF-8" standalone="no"?>
<!DOCTYPE svg PUBLIC "-//W3C//DTD SVG 1.1//EN" "http://www.w3.org/Graphics/SVG/1.1/DTD/svg11.dtd">
<svg width="100%" height="100%" viewBox="0 0 20 20" version="1.1" xmlns="http://www.w3.org/2000/svg" xmlns:xlink="http://www.w3.org/1999/xlink" xml:space="preserve" xmlns:serif="http://www.serif.com/" style="fill-rule:evenodd;clip-rule:evenodd;stroke-linejoin:round;stroke-miterlimit:2;">
    <g transform="matrix(1,0,0,1,1.32197,-1.24075)">
        <g transform="matrix(0.707107,-0.707107,0.707107,0.707107,1.68015,13.5168)">
            <rect x="0.969" y="-0.496" width="8.699" height="8.699" style="fill:rgb(235,235,235);"/>
        </g>
        <g transform="matrix(1,0,0,1,-3.55271e-15,-1.92116)">
            <g transform="matrix(1,0,0,1,0.488684,-0.265131)">
                <circle cx="7.677" cy="12.747" r="0.897" style="fill:rgb(74,74,74);"/>
            </g>
            <g transform="matrix(1,0,0,1,2.40984,1.65603)">
                <circle cx="7.677" cy="12.747" r="0.897" style="fill:rgb(74,74,74);"/>
            </g>
            <g transform="matrix(1,0,0,1,-1.43247,1.65603)">
                <circle cx="7.677" cy="12.747" r="0.897" style="fill:rgb(74,74,74);"/>
            </g>
            <g transform="matrix(1,0,0,1,0.488684,3.57718)">
                <circle cx="7.677" cy="12.747" r="0.897" style="fill:rgb(74,74,74);"/>
            </g>
        </g>
        <g transform="matrix(0.707107,-0.707107,0.707107,0.707107,-4.47104,7.36559)">
            <path d="M12.147,7.173L3.448,7.173L0.969,8.204L9.668,8.204L12.147,7.173Z" style="fill:rgb(247,247,247);"/>
        </g>
        <g transform="matrix(-0.707107,-0.707107,0.707107,-0.707107,15.3523,12.816)">
            <path d="M9.668,-0.496L0.969,-0.496L1.999,1.984L10.698,1.984L9.668,-0.496Z" style="fill:rgb(229,229,229);"/>
        </g>
        <g transform="matrix(0.707107,-0.707107,0.707107,0.707107,7.83135,7.36559)">
            <path d="M3.448,-1.526L0.969,-0.496L0.969,8.204L3.448,7.173L3.448,-1.526Z" style="fill:rgb(229,229,229);"/>
            <clipPath id="_clip1">
                <path d="M3.448,-1.526L0.969,-0.496L0.969,8.204L3.448,7.173L3.448,-1.526Z"/>
            </clipPath>
            <g clip-path="url(#_clip1)">
                <g transform="matrix(0.64039,-0.369729,0.369729,0.64039,-10.6038,-6.48151)">
                    <path d="M7.086,12.023C7.537,12.104 8.067,12.626 8.112,13.036C8.167,13.528 8.053,13.66 7.558,13.66C7.063,13.66 6.407,13.062 6.407,12.567C6.407,12.072 6.599,11.935 7.086,12.023Z" style="fill:rgb(74,74,74);"/>
                </g>
                <g transform="matrix(0.64039,-0.369729,0.369729,0.64039,-13.5436,-6.48151)">
                    <path d="M7.086,12.023C7.537,12.104 8.067,12.626 8.112,13.036C8.167,13.528 8.053,13.66 7.558,13.66C7.063,13.66 6.407,13.062 6.407,12.567C6.407,12.072 6.599,11.935 7.086,12.023Z" style="fill:rgb(74,74,74);"/>
                </g>
            </g>
        </g>
    </g>
    <g transform="matrix(-0.707107,-0.707107,0.707107,-0.707107,16.6743,11.5752)">
        <path d="M9.668,-0.496L0.969,-0.496L1.999,1.984L10.698,1.984L9.668,-0.496Z" style="fill:rgb(229,229,229);"/>
    </g>
    <g transform="matrix(0.327033,-0.301411,0.522478,0.566892,3.90508,2.01241)">
        <circle cx="7.677" cy="12.747" r="0.897" style="fill:rgb(74,74,74);"/>
    </g>
</svg>
