<?xml version="1.0" encoding="UTF-8" standalone="no"?>
<!DOCTYPE svg PUBLIC "-//W3C//DTD SVG 1.1//EN" "http://www.w3.org/Graphics/SVG/1.1/DTD/svg11.dtd">
<svg width="100%" height="100%" viewBox="0 0 200 200" version="1.1" xmlns="http://www.w3.org/2000/svg" xmlns:xlink="http://www.w3.org/1999/xlink" xml:space="preserve" xmlns:serif="http://www.serif.com/" style="fill-rule:evenodd;clip-rule:evenodd;stroke-linejoin:round;stroke-miterlimit:2;">
    <g>
        <g transform="matrix(1.34521,0,0,1.92209,15.2554,-171.673)">
            <path d="M133.95,128.882C133.95,119.515 123.084,111.91 109.701,111.91L16.294,111.91C2.91,111.91 -7.956,119.515 -7.956,128.882L-7.956,162.825C-7.956,172.192 2.91,179.797 16.294,179.797L109.701,179.797C123.084,179.797 133.95,172.192 133.95,162.825L133.95,128.882Z" style="fill:rgb(79,34,42);"/>
        </g>
        <g transform="matrix(1.34521,0,0,1.92209,15.2554,-189.013)">
            <path d="M133.95,128.882C133.95,119.515 123.084,111.91 109.701,111.91L16.294,111.91C2.91,111.91 -7.956,119.515 -7.956,128.882L-7.956,162.825C-7.956,172.192 2.91,179.797 16.294,179.797L109.701,179.797C123.084,179.797 133.95,172.192 133.95,162.825L133.95,128.882Z" style="fill:rgb(113,27,43);"/>
            <clipPath id="_clip1">
                <path d="M133.95,128.882C133.95,119.515 123.084,111.91 109.701,111.91L16.294,111.91C2.91,111.91 -7.956,119.515 -7.956,128.882L-7.956,162.825C-7.956,172.192 2.91,179.797 16.294,179.797L109.701,179.797C123.084,179.797 133.95,172.192 133.95,162.825L133.95,128.882Z"/>
            </clipPath>
            <g clip-path="url(#_clip1)">
                <g transform="matrix(0.941418,0,0,0.65887,-41.6455,84.3796)">
                    <path d="M111.154,53.57L121.016,83.922L152.93,83.922L127.111,102.681L136.973,133.033L111.154,114.274L85.335,133.033L95.197,102.681L69.378,83.922L101.292,83.922L111.154,53.57Z" style="fill:white;"/>
                </g>
            </g>
        </g>
    </g>
</svg>
