<?xml version="1.0" encoding="UTF-8" standalone="no"?>
<!DOCTYPE svg PUBLIC "-//W3C//DTD SVG 1.1//EN" "http://www.w3.org/Graphics/SVG/1.1/DTD/svg11.dtd">
<svg width="100%" height="100%" viewBox="0 0 16 16" version="1.1" xmlns="http://www.w3.org/2000/svg" xmlns:xlink="http://www.w3.org/1999/xlink" xml:space="preserve" xmlns:serif="http://www.serif.com/" style="fill-rule:evenodd;clip-rule:evenodd;stroke-linejoin:round;stroke-miterlimit:2;">
    <g transform="matrix(0.960308,0,0,0.960308,0.317539,-0.431399)">
        <g transform="matrix(1,0,0,1,-1.25858,-0.825316)">
            <path d="M17.235,6.131C17.235,4.644 16.028,3.436 14.541,3.436L3.976,3.436C2.489,3.436 1.282,4.644 1.282,6.131L1.282,11.52C1.282,13.007 2.489,14.214 3.976,14.214L14.541,14.214C16.028,14.214 17.235,13.007 17.235,11.52L17.235,6.131Z" style="fill:rgb(255,0,0);"/>
        </g>
        <g transform="matrix(1,0,0,1,-1.25858,-0.825316)">
            <path d="M17.235,6.131C17.235,4.644 16.028,3.436 14.541,3.436L3.976,3.436C2.489,3.436 1.282,4.644 1.282,6.131L1.282,11.52C1.282,13.007 2.489,14.214 3.976,14.214L14.541,14.214C16.028,14.214 17.235,13.007 17.235,11.52L17.235,6.131Z" style="fill:rgb(134,0,125);"/>
        </g>
        <g transform="matrix(1,0,0,1,-1.25858,0.734472)">
            <path d="M17.235,6.131C17.235,4.644 16.028,3.436 14.541,3.436L3.976,3.436C2.489,3.436 1.282,4.644 1.282,6.131L1.282,11.52C1.282,13.007 2.489,14.214 3.976,14.214L14.541,14.214C16.028,14.214 17.235,13.007 17.235,11.52L17.235,6.131Z" style="fill:rgb(66,16,27);"/>
        </g>
        <g transform="matrix(1,0,0,1,-1.25858,-0.825316)">
            <path d="M17.235,6.131C17.235,4.644 16.028,3.436 14.541,3.436L3.976,3.436C2.489,3.436 1.282,4.644 1.282,6.131L1.282,11.52C1.282,13.007 2.489,14.214 3.976,14.214L14.541,14.214C16.028,14.214 17.235,13.007 17.235,11.52L17.235,6.131Z" style="fill:rgb(113,27,43);"/>
        </g>
        <g transform="matrix(-1,0,0,1,16.1378,-0.781796)">
            <path d="M8.138,4.664L9.16,7.81L12.467,7.81L9.792,9.754L10.814,12.899L8.138,10.955L5.462,12.899L6.484,9.754L3.808,7.81L7.116,7.81L8.138,4.664Z" style="fill:white;"/>
        </g>
    </g>
</svg>
