<?xml version="1.0" encoding="UTF-8" standalone="no"?>
<!DOCTYPE svg PUBLIC "-//W3C//DTD SVG 1.1//EN" "http://www.w3.org/Graphics/SVG/1.1/DTD/svg11.dtd">
<svg width="100%" height="100%" viewBox="0 0 1080 1080" version="1.1" xmlns="http://www.w3.org/2000/svg" xmlns:xlink="http://www.w3.org/1999/xlink" xml:space="preserve" xmlns:serif="http://www.serif.com/" style="fill-rule:evenodd;clip-rule:evenodd;stroke-linejoin:round;stroke-miterlimit:2;">
    <g transform="matrix(1.18972,0,0,1.18972,-102.451,-152.512)">
        <path d="M806.899,232.696C883.518,289.871 931.461,371.346 931.461,461.708C931.461,634.55 756.053,774.877 540,774.877C505.751,774.877 471.65,771.281 438.571,764.182L265.977,931.461L315.373,718.188C210.806,659.576 148.539,563.851 148.539,461.708C148.539,371.968 195.824,290.994 271.545,233.863C243.269,268.16 227.005,308.307 227.005,351.204C227.005,477.111 367.122,579.331 539.706,579.331C712.291,579.331 852.408,477.111 852.408,351.204C852.408,307.816 835.769,267.241 806.899,232.696Z" style="fill:white;fill-opacity:0.2;"/>
        <clipPath id="_clip1">
            <path d="M806.899,232.696C883.518,289.871 931.461,371.346 931.461,461.708C931.461,634.55 756.053,774.877 540,774.877C505.751,774.877 471.65,771.281 438.571,764.182L265.977,931.461L315.373,718.188C210.806,659.576 148.539,563.851 148.539,461.708C148.539,371.968 195.824,290.994 271.545,233.863C243.269,268.16 227.005,308.307 227.005,351.204C227.005,477.111 367.122,579.331 539.706,579.331C712.291,579.331 852.408,477.111 852.408,351.204C852.408,307.816 835.769,267.241 806.899,232.696Z"/>
        </clipPath>
        <g clip-path="url(#_clip1)">
            <g transform="matrix(1.22473,0,0,1.22473,-121.354,234.373)">
                <rect x="0" y="0" width="1080" height="1080" style="fill:url(#_Linear2);"/>
            </g>
        </g>
    </g>
    <defs>
        <linearGradient id="_Linear2" x1="0" y1="0" x2="1" y2="0" gradientUnits="userSpaceOnUse" gradientTransform="matrix(1080,0,0,1080,0,540)"><stop offset="0" style="stop-color:rgb(192,72,72);stop-opacity:1"/><stop offset="1" style="stop-color:rgb(72,2,72);stop-opacity:1"/></linearGradient>
    </defs>
</svg>
