<?xml version="1.0" encoding="UTF-8" standalone="no"?>
<!DOCTYPE svg PUBLIC "-//W3C//DTD SVG 1.1//EN" "http://www.w3.org/Graphics/SVG/1.1/DTD/svg11.dtd">
<svg width="100%" height="100%" viewBox="0 0 20 20" version="1.1" xmlns="http://www.w3.org/2000/svg" xmlns:xlink="http://www.w3.org/1999/xlink" xml:space="preserve" xmlns:serif="http://www.serif.com/" style="fill-rule:evenodd;clip-rule:evenodd;stroke-linejoin:round;stroke-miterlimit:2;">
    <g transform="matrix(1,0,0,1,3.55271e-15,1.98173)">
        <g transform="matrix(0.981136,0,0,0.981136,0.296499,-1.12615)">
            <path d="M19.053,2.678C19.053,2.195 18.661,1.802 18.178,1.802L1.602,1.802C1.119,1.802 0.727,2.195 0.727,2.678L0.727,4.428C0.727,4.911 1.119,5.303 1.602,5.303L18.178,5.303C18.661,5.303 19.053,4.911 19.053,4.428L19.053,2.678Z" style="fill:rgb(220,53,69);"/>
        </g>
        <g transform="matrix(0.870858,0,0,0.870858,1.38716,2.85466)">
            <path d="M19.053,2.678C19.053,2.195 18.661,1.802 18.178,1.802L1.602,1.802C1.119,1.802 0.727,2.195 0.727,2.678L0.727,4.428C0.727,4.911 1.119,5.303 1.602,5.303L18.178,5.303C18.661,5.303 19.053,4.911 19.053,4.428L19.053,2.678Z" style="fill:rgb(255,193,7);"/>
        </g>
        <g transform="matrix(0.763417,0,0,0.763417,2.44976,6.44436)">
            <path d="M19.053,2.678C19.053,2.195 18.661,1.802 18.178,1.802L1.602,1.802C1.119,1.802 0.727,2.195 0.727,2.678L0.727,4.428C0.727,4.911 1.119,5.303 1.602,5.303L18.178,5.303C18.661,5.303 19.053,4.911 19.053,4.428L19.053,2.678Z" style="fill:rgb(248,249,250);"/>
        </g>
        <g transform="matrix(0.655006,0,0,0.655006,3.52195,9.65973)">
            <path d="M19.053,2.678C19.053,2.195 18.661,1.802 18.178,1.802L1.602,1.802C1.119,1.802 0.727,2.195 0.727,2.678L0.727,4.428C0.727,4.911 1.119,5.303 1.602,5.303L18.178,5.303C18.661,5.303 19.053,4.911 19.053,4.428L19.053,2.678Z" style="fill:rgb(248,249,250);"/>
        </g>
        <g transform="matrix(0.546624,0,0,0.546624,4.59385,12.4956)">
            <path d="M19.053,2.678C19.053,2.195 18.661,1.802 18.178,1.802L1.602,1.802C1.119,1.802 0.727,2.195 0.727,2.678L0.727,4.428C0.727,4.911 1.119,5.303 1.602,5.303L18.178,5.303C18.661,5.303 19.053,4.911 19.053,4.428L19.053,2.678Z" style="fill:rgb(248,249,250);"/>
        </g>
    </g>
</svg>
