<?xml version="1.0" encoding="UTF-8" standalone="no"?>
<!DOCTYPE svg PUBLIC "-//W3C//DTD SVG 1.1//EN" "http://www.w3.org/Graphics/SVG/1.1/DTD/svg11.dtd">
<svg width="100%" height="100%" viewBox="0 0 16 16" version="1.1" xmlns="http://www.w3.org/2000/svg" xmlns:xlink="http://www.w3.org/1999/xlink" xml:space="preserve" xmlns:serif="http://www.serif.com/" style="fill-rule:evenodd;clip-rule:evenodd;stroke-linejoin:round;stroke-miterlimit:2;">
    <rect x="0.609" y="2.768" width="14.798" height="9.693" style="fill:rgb(223,224,224);"/>
    <g transform="matrix(1,0,0,1,-0.0293332,0)">
        <g transform="matrix(1,0,0,1,0,-0.231759)">
            <path d="M6.6,5.57L15.755,3L15.775,14.004L6.602,16.232L6.6,5.57Z" style="fill:rgb(172,172,172);"/>
        </g>
        <path d="M0.497,12.516L0.283,2.24L6.567,5.312L6.6,16L0.497,12.516Z" style="fill:rgb(203,204,204);"/>
        <path d="M0.283,2.24L6.6,5.338L15.775,2.768L9.056,0L0.283,2.24Z" style="fill:rgb(223,224,224);"/>
        <g transform="matrix(-0.00282371,0.927631,-1.11153,-0.0033835,14.7065,0.977346)">
            <ellipse cx="1.54" cy="6.178" rx="0.589" ry="1.235"/>
        </g>
        <g transform="matrix(1.05366,-0.210408,0.218629,1.09482,-1.2404,-0.527621)">
            <ellipse cx="1.54" cy="6.178" rx="0.589" ry="1.235"/>
        </g>
        <g transform="matrix(1.03938,-0.25305,0.262937,1.07999,1.18978,5.8118)">
            <ellipse cx="1.54" cy="6.178" rx="0.589" ry="1.235"/>
        </g>
        <g transform="matrix(1.36877,0.978548,-0.646442,0.904226,10.9632,5.4228)">
            <ellipse cx="1.54" cy="6.178" rx="0.589" ry="1.235"/>
        </g>
        <g transform="matrix(1.36877,0.978548,-0.646442,0.904226,13.0269,2.55178)">
            <ellipse cx="1.54" cy="6.178" rx="0.589" ry="1.235"/>
        </g>
        <g transform="matrix(1.36877,0.978548,-0.646442,0.904226,15.0733,-0.297933)">
            <ellipse cx="1.54" cy="6.178" rx="0.589" ry="1.235"/>
        </g>
    </g>
</svg>
