<?xml version="1.0" encoding="UTF-8" standalone="no"?>
<!DOCTYPE svg PUBLIC "-//W3C//DTD SVG 1.1//EN" "http://www.w3.org/Graphics/SVG/1.1/DTD/svg11.dtd">
<svg width="100%" height="100%" viewBox="0 0 20 20" version="1.1" xmlns="http://www.w3.org/2000/svg" xmlns:xlink="http://www.w3.org/1999/xlink" xml:space="preserve" xmlns:serif="http://www.serif.com/" style="fill-rule:evenodd;clip-rule:evenodd;stroke-linejoin:round;stroke-miterlimit:2;">
    <g transform="matrix(1,0,0,1,0,-0.544674)">
        <g id="Thickness" transform="matrix(1.29945,0,0,1.09514,-0.138507,-0.982327)">
            <rect x="0.463" y="16.05" width="14.766" height="2.059" style="fill:none;"/>
            <clipPath id="_clip1">
                <rect x="0.463" y="16.05" width="14.766" height="2.059"/>
            </clipPath>
            <g clip-path="url(#_clip1)">
                <g id="Bottom" transform="matrix(0.769558,0,0,0.913123,0.106589,1.81677)">
                    <g transform="matrix(1,0,0,1,0,-0.6396)">
                        <g transform="matrix(1,0,0,1.39616,0.775865,-1.14949)">
                            <path d="M16.87,3.406L1.628,3.406L1.628,5.06L0,13.6L18.448,13.497L16.87,5.049L16.87,3.406Z" style="fill:rgb(255,255,136);"/>
                        </g>
                        <g transform="matrix(1,0,0,1.39616,0.775865,-1.14949)">
                            <path d="M16.87,3.406L1.628,3.406L1.628,5.06L0,13.6L18.448,13.497L16.87,5.049L16.87,3.406Z" style="fill-opacity:0.2;"/>
                        </g>
                    </g>
                    <g transform="matrix(1,0,0,1.39616,0.775865,-1.87114)">
                        <path d="M16.87,3.406L1.628,3.406L1.628,5.06L0,13.6L18.448,13.497L16.87,5.049L16.87,3.406Z" style="fill:rgb(255,255,136);"/>
                    </g>
                </g>
                <g id="Middle" transform="matrix(0.769558,0,0,0.913123,0.106589,1.41996)">
                    <g transform="matrix(1,0,0,1,0,0.289435)">
                        <g transform="matrix(1,0,0,1.39616,0.775865,-1.78909)">
                            <path d="M16.87,3.406L1.628,3.406L1.628,5.06L0,13.6L18.448,13.497L16.87,5.049L16.87,3.406Z" style="fill-opacity:0.2;"/>
                        </g>
                        <g transform="matrix(1,0,0,1.39616,0.775865,-1.87114)">
                            <path d="M16.87,3.406L1.628,3.406L1.628,5.06L0,13.6L18.448,13.497L16.87,5.049L16.87,3.406Z" style="fill:rgb(255,255,136);"/>
                        </g>
                    </g>
                    <g transform="matrix(1,0,0,1,0,0.145128)">
                        <g transform="matrix(1,0,0,1.39616,0.775865,-1.78909)">
                            <path d="M16.87,3.406L1.628,3.406L1.628,5.06L0,13.6L18.448,13.497L16.87,5.049L16.87,3.406Z" style="fill-opacity:0.2;"/>
                        </g>
                        <g transform="matrix(1,0,0,1.39616,0.775865,-1.87114)">
                            <path d="M16.87,3.406L1.628,3.406L1.628,5.06L0,13.6L18.448,13.497L16.87,5.049L16.87,3.406Z" style="fill:rgb(255,255,136);"/>
                        </g>
                    </g>
                    <g>
                        <g transform="matrix(1,0,0,1.39616,0.775865,-1.78909)">
                            <path d="M16.87,3.406L1.628,3.406L1.628,5.06L0,13.6L18.448,13.497L16.87,5.049L16.87,3.406Z" style="fill-opacity:0.2;"/>
                        </g>
                        <g transform="matrix(1,0,0,1.39616,0.775865,-1.87114)">
                            <path d="M16.87,3.406L1.628,3.406L1.628,5.06L0,13.6L18.448,13.497L16.87,5.049L16.87,3.406Z" style="fill:rgb(255,255,136);"/>
                        </g>
                    </g>
                    <g transform="matrix(1,0,0,1,0,-0.138173)">
                        <g transform="matrix(1,0,0,1.39616,0.775865,-1.78909)">
                            <path d="M16.87,3.406L1.628,3.406L1.628,5.06L0,13.6L18.448,13.497L16.87,5.049L16.87,3.406Z" style="fill-opacity:0.2;"/>
                        </g>
                        <g transform="matrix(1,0,0,1.39616,0.775865,-1.87114)">
                            <path d="M16.87,3.406L1.628,3.406L1.628,5.06L0,13.6L18.448,13.497L16.87,5.049L16.87,3.406Z" style="fill:rgb(255,255,136);"/>
                        </g>
                    </g>
                    <g transform="matrix(1,0,0,1,0,-0.283301)">
                        <g transform="matrix(1,0,0,1.39616,0.775865,-1.78909)">
                            <path d="M16.87,3.406L1.628,3.406L1.628,5.06L0,13.6L18.448,13.497L16.87,5.049L16.87,3.406Z" style="fill-opacity:0.2;"/>
                        </g>
                        <g transform="matrix(1,0,0,1.39616,0.775865,-1.87114)">
                            <path d="M16.87,3.406L1.628,3.406L1.628,5.06L0,13.6L18.448,13.497L16.87,5.049L16.87,3.406Z" style="fill:rgb(255,255,136);"/>
                        </g>
                    </g>
                    <g transform="matrix(1,0,0,1,0,-0.427608)">
                        <g transform="matrix(1,0,0,1.39616,0.775865,-1.78909)">
                            <path d="M16.87,3.406L1.628,3.406L1.628,5.06L0,13.6L18.448,13.497L16.87,5.049L16.87,3.406Z" style="fill-opacity:0.2;"/>
                        </g>
                        <g transform="matrix(1,0,0,1.39616,0.775865,-1.87114)">
                            <path d="M16.87,3.406L1.628,3.406L1.628,5.06L0,13.6L18.448,13.497L16.87,5.049L16.87,3.406Z" style="fill:rgb(255,255,136);"/>
                        </g>
                    </g>
                </g>
            </g>
        </g>
        <g id="Top">
            <g transform="matrix(1,0,0,1.39616,0.775865,-1.78909)">
                <path d="M16.87,3.406L1.628,3.406L1.628,5.06L0,13.6L18.448,13.497L16.87,5.049L16.87,3.406Z" style="fill-opacity:0.2;"/>
            </g>
            <g transform="matrix(1,0,0,1.39616,0.775865,-1.87114)">
                <path d="M16.87,3.406L1.628,3.406L1.628,5.06L0,13.6L18.448,13.497L16.87,5.049L16.87,3.406Z" style="fill:rgb(255,255,136);"/>
            </g>
        </g>
    </g>
</svg>
