<?xml version="1.0" encoding="UTF-8" standalone="no"?>
<!DOCTYPE svg PUBLIC "-//W3C//DTD SVG 1.1//EN" "http://www.w3.org/Graphics/SVG/1.1/DTD/svg11.dtd">
<svg width="100%" height="100%" viewBox="0 0 1080 1080" version="1.1" xmlns="http://www.w3.org/2000/svg" xmlns:xlink="http://www.w3.org/1999/xlink" xml:space="preserve" xmlns:serif="http://www.serif.com/" style="fill-rule:evenodd;clip-rule:evenodd;stroke-linejoin:round;stroke-miterlimit:2;">
    <g transform="matrix(0.866963,0,0,0.866963,132.935,114.03)">
        <path d="M817.069,194.831C817.069,98.925 739.205,21.062 643.299,21.062L295.761,21.062C199.855,21.062 121.992,98.925 121.992,194.831L121.992,787.842C121.992,883.747 199.855,961.611 295.761,961.611L643.299,961.611C739.205,961.611 817.069,883.747 817.069,787.842L817.069,194.831Z" style="fill:white;"/>
        <clipPath id="_clip1">
            <path d="M817.069,194.831C817.069,98.925 739.205,21.062 643.299,21.062L295.761,21.062C199.855,21.062 121.992,98.925 121.992,194.831L121.992,787.842C121.992,883.747 199.855,961.611 295.761,961.611L643.299,961.611C739.205,961.611 817.069,883.747 817.069,787.842L817.069,194.831Z"/>
        </clipPath>
        <g clip-path="url(#_clip1)">
            <g transform="matrix(0.882058,0,0,0.882058,-6.78137,15.0248)">
                <rect x="0" y="0" width="1080" height="1080" style="fill:rgb(255,153,102);"/>
            </g>
            <g transform="matrix(1,0,0,1,278.698,-303.466)">
                <path d="M859.388,505.411C859.388,332.568 683.98,192.242 467.927,192.242C251.874,192.242 76.466,332.568 76.466,505.411C76.466,607.554 138.733,703.279 243.299,761.89L193.904,975.164L366.498,807.884C399.577,814.984 433.678,818.579 467.927,818.579C683.98,818.579 859.388,678.253 859.388,505.411Z" style="fill:white;fill-opacity:0.5;"/>
            </g>
            <g transform="matrix(1,0,0,1,-40.5791,177.085)">
                <circle cx="510.109" cy="670.94" r="77.563" style="fill:white;fill-opacity:0.5;"/>
            </g>
        </g>
    </g>
</svg>
