<?xml version="1.0" encoding="UTF-8" standalone="no"?>
<!DOCTYPE svg PUBLIC "-//W3C//DTD SVG 1.1//EN" "http://www.w3.org/Graphics/SVG/1.1/DTD/svg11.dtd">
<svg width="100%" height="100%" viewBox="0 0 16 16" version="1.1" xmlns="http://www.w3.org/2000/svg" xmlns:xlink="http://www.w3.org/1999/xlink" xml:space="preserve" xmlns:serif="http://www.serif.com/" style="fill-rule:evenodd;clip-rule:evenodd;stroke-linejoin:round;stroke-miterlimit:2;">
    <g>
        <g transform="matrix(1,0,0,1,0.2165,0.201214)">
            <circle cx="7.783" cy="7.799" r="7.223" style="fill:url(#_Radial1);"/>
        </g>
        <path d="M3.059,2.733C4.351,1.52 6.09,0.777 8,0.777C9.91,0.777 11.649,1.52 12.941,2.733C12.898,2.73 12.854,2.729 12.811,2.729C10.992,2.729 9.515,5.091 9.515,8C9.515,10.909 10.992,13.271 12.811,13.271C12.854,13.271 12.898,13.27 12.941,13.267C11.649,14.48 9.91,15.223 8,15.223C6.09,15.223 4.351,14.48 3.059,13.267C3.102,13.27 3.146,13.271 3.189,13.271C5.008,13.271 6.485,10.909 6.485,8C6.485,5.091 5.008,2.729 3.189,2.729C3.146,2.729 3.102,2.73 3.059,2.733Z" style="fill:url(#_Radial2);"/>
    </g>
    <defs>
        <radialGradient id="_Radial1" cx="0" cy="0" r="1" gradientUnits="userSpaceOnUse" gradientTransform="matrix(7.22347,0,0,7.22347,7.7835,7.79879)"><stop offset="0" style="stop-color:black;stop-opacity:1"/><stop offset="0.2" style="stop-color:rgb(18,0,27);stop-opacity:1"/><stop offset="1" style="stop-color:rgb(51,0,75);stop-opacity:1"/></radialGradient>
        <radialGradient id="_Radial2" cx="0" cy="0" r="1" gradientUnits="userSpaceOnUse" gradientTransform="matrix(7.22347,0,0,7.22347,7.7835,7.79879)"><stop offset="0" style="stop-color:rgb(94,111,255);stop-opacity:1"/><stop offset="1" style="stop-color:rgb(51,0,75);stop-opacity:1"/></radialGradient>
    </defs>
</svg>
