<?xml version="1.0" encoding="UTF-8" standalone="no"?>
<!DOCTYPE svg PUBLIC "-//W3C//DTD SVG 1.1//EN" "http://www.w3.org/Graphics/SVG/1.1/DTD/svg11.dtd">
<svg width="100%" height="100%" viewBox="0 0 20 20" version="1.1" xmlns="http://www.w3.org/2000/svg" xmlns:xlink="http://www.w3.org/1999/xlink" xml:space="preserve" xmlns:serif="http://www.serif.com/" style="fill-rule:evenodd;clip-rule:evenodd;stroke-linejoin:round;stroke-miterlimit:2;">
    <g transform="matrix(1,0,0,1,0,-1.30454)">
        <g transform="matrix(0.929527,0,0,1,0.379889,0)">
            <rect x="5.391" y="12.47" width="9.918" height="6.095" style="fill:rgb(247,223,30);"/>
            <g transform="matrix(0.015429,0,0,0.0143417,5.68511,9.62329)">
                <path d="M423.2,492.19C435.89,512.91 452.4,528.14 481.6,528.14C506.13,528.14 521.8,515.88 521.8,498.94C521.8,478.64 505.7,471.45 478.7,459.64L463.9,453.29C421.18,435.09 392.8,412.29 392.8,364.09C392.8,319.69 426.63,285.89 479.5,285.89C517.14,285.89 544.2,298.99 563.7,333.29L517.6,362.89C507.45,344.69 496.5,337.52 479.5,337.52C462.16,337.52 451.17,348.52 451.17,362.89C451.17,380.65 462.17,387.84 487.57,398.84L502.37,405.18C552.67,426.75 581.07,448.74 581.07,498.18C581.07,551.48 539.2,580.68 482.97,580.68C427.99,580.68 392.47,554.48 375.09,520.14L423.2,492.19ZM214.07,497.32C223.37,513.82 231.83,527.77 252.17,527.77C271.62,527.77 283.89,520.16 283.89,490.57L283.89,289.27L343.09,289.27L343.09,491.37C343.09,552.67 307.15,580.57 254.69,580.57C207.29,580.57 179.84,556.04 165.88,526.495L214.07,497.32Z" style="fill-rule:nonzero;"/>
            </g>
        </g>
        <path d="M13.5,10.435L6.806,10.413L5.391,12.47L14.609,12.47L13.5,10.435Z" style="fill:rgb(213,192,0);"/>
        <g transform="matrix(3.23697,0,0,3.23697,-11.4327,-46.7509)">
            <g>
                <g transform="matrix(1,0,0,1,0.137705,-0.286087)">
                    <path d="M6.621,16.602C6.621,16.564 6.59,16.533 6.552,16.533L6.415,16.533C6.377,16.533 6.346,16.564 6.346,16.602L6.346,18.249C6.346,18.287 6.377,18.318 6.415,18.318L6.552,18.318C6.59,18.318 6.621,18.287 6.621,18.249L6.621,16.602Z"/>
                </g>
                <circle cx="6.621" cy="16.356" r="0.664" style="fill:rgb(247,223,30);"/>
            </g>
        </g>
    </g>
    <g transform="matrix(1,0,0,1,0,-1.30454)">
        <g transform="matrix(0.929527,0,0,1,0.379889,0)">
            <rect x="5.391" y="12.47" width="9.918" height="6.095" style="fill:rgb(247,223,30);"/>
            <g transform="matrix(0.913397,0,0,0.849027,0.951849,4.41492)">
                <g transform="matrix(4.27617,0,0,4.27617,5.01757,16.4573)">
                    <rect x="0.018" y="-0.161" width="0.149" height="0.161" style="fill:rgb(213,192,0);fill-rule:nonzero;"/>
                </g>
                <g transform="matrix(4.27617,0,0,4.27617,5.80682,16.4573)">
                    <path d="M0.471,-0.403L0.285,-0.403L0.285,-0.478C0.285,-0.504 0.283,-0.522 0.279,-0.531C0.275,-0.54 0.267,-0.545 0.255,-0.545C0.244,-0.545 0.236,-0.541 0.232,-0.533C0.229,-0.525 0.227,-0.506 0.227,-0.478L0.227,-0.172C0.227,-0.149 0.229,-0.132 0.235,-0.12C0.241,-0.109 0.25,-0.103 0.261,-0.103C0.275,-0.103 0.284,-0.109 0.288,-0.121C0.293,-0.133 0.295,-0.156 0.295,-0.189L0.295,-0.267L0.471,-0.267C0.471,-0.215 0.469,-0.176 0.466,-0.15C0.462,-0.124 0.451,-0.098 0.433,-0.071C0.414,-0.043 0.39,-0.023 0.361,-0.009C0.331,0.005 0.295,0.012 0.251,0.012C0.195,0.012 0.151,0.002 0.119,-0.017C0.086,-0.036 0.063,-0.063 0.05,-0.097C0.036,-0.131 0.029,-0.18 0.029,-0.243L0.029,-0.427C0.029,-0.482 0.035,-0.524 0.046,-0.552C0.057,-0.58 0.081,-0.605 0.117,-0.627C0.153,-0.649 0.197,-0.66 0.249,-0.66C0.3,-0.66 0.344,-0.649 0.38,-0.627C0.417,-0.605 0.441,-0.578 0.453,-0.544C0.465,-0.511 0.471,-0.464 0.471,-0.403Z" style="fill:rgb(213,192,0);fill-rule:nonzero;"/>
                </g>
                <g transform="matrix(4.27617,0,0,4.27617,7.92194,16.4573)">
                    <path d="M0.211,-0.397L0.026,-0.397L0.026,-0.44C0.026,-0.491 0.032,-0.529 0.044,-0.556C0.055,-0.584 0.078,-0.608 0.113,-0.628C0.148,-0.649 0.193,-0.66 0.249,-0.66C0.316,-0.66 0.366,-0.648 0.4,-0.624C0.434,-0.601 0.454,-0.572 0.461,-0.537C0.468,-0.503 0.471,-0.432 0.471,-0.325L0.471,-0L0.279,-0L0.279,-0.058C0.267,-0.035 0.252,-0.017 0.233,-0.006C0.214,0.006 0.191,0.012 0.165,0.012C0.13,0.012 0.098,0.002 0.07,-0.017C0.041,-0.037 0.026,-0.079 0.026,-0.145L0.026,-0.198C0.026,-0.246 0.034,-0.279 0.049,-0.297C0.065,-0.314 0.103,-0.335 0.163,-0.358C0.228,-0.384 0.263,-0.401 0.267,-0.41C0.272,-0.418 0.274,-0.436 0.274,-0.463C0.274,-0.497 0.271,-0.519 0.266,-0.53C0.261,-0.54 0.253,-0.545 0.241,-0.545C0.228,-0.545 0.22,-0.541 0.216,-0.532C0.213,-0.523 0.211,-0.501 0.211,-0.465L0.211,-0.397ZM0.274,-0.308C0.242,-0.285 0.224,-0.266 0.219,-0.25C0.214,-0.234 0.211,-0.212 0.211,-0.183C0.211,-0.149 0.214,-0.127 0.218,-0.118C0.222,-0.108 0.231,-0.103 0.244,-0.103C0.257,-0.103 0.265,-0.107 0.268,-0.115C0.272,-0.122 0.274,-0.142 0.274,-0.175L0.274,-0.308Z" style="fill:rgb(213,192,0);fill-rule:nonzero;"/>
                </g>
                <g transform="matrix(4.27617,0,0,4.27617,10.0767,16.4573)">
                    <path d="M0.484,-0.791L0.484,-0L0.287,-0L0.287,-0.047C0.268,-0.027 0.248,-0.013 0.227,-0.003C0.206,0.007 0.184,0.012 0.162,0.012C0.131,0.012 0.104,0.004 0.082,-0.012C0.06,-0.029 0.045,-0.047 0.039,-0.068C0.032,-0.09 0.029,-0.124 0.029,-0.172L0.029,-0.475C0.029,-0.525 0.032,-0.56 0.039,-0.581C0.045,-0.602 0.06,-0.62 0.083,-0.636C0.105,-0.652 0.132,-0.66 0.164,-0.66C0.188,-0.66 0.211,-0.655 0.231,-0.646C0.252,-0.638 0.27,-0.625 0.287,-0.607L0.287,-0.791L0.484,-0.791ZM0.287,-0.485C0.287,-0.509 0.285,-0.525 0.281,-0.533C0.276,-0.541 0.268,-0.545 0.256,-0.545C0.245,-0.545 0.237,-0.541 0.233,-0.534C0.229,-0.527 0.227,-0.51 0.227,-0.485L0.227,-0.167C0.227,-0.141 0.229,-0.124 0.232,-0.115C0.236,-0.107 0.244,-0.103 0.255,-0.103C0.268,-0.103 0.276,-0.108 0.28,-0.117C0.285,-0.126 0.287,-0.149 0.287,-0.185L0.287,-0.485Z" style="fill:rgb(213,192,0);fill-rule:nonzero;"/>
                </g>
                <g transform="matrix(4.27617,0,0,4.27617,12.2983,16.4573)">
                    <path d="M0.238,-0.791L0.238,-0.688L0.035,-0.688L0.035,-0.791L0.238,-0.791ZM0.238,-0.648L0.238,-0L0.035,-0L0.035,-0.648L0.238,-0.648Z" style="fill:rgb(213,192,0);fill-rule:nonzero;"/>
                </g>
                <g transform="matrix(4.27617,0,0,4.27617,13.4697,16.4573)">
                    <path d="M0.211,-0.397L0.026,-0.397L0.026,-0.44C0.026,-0.491 0.032,-0.529 0.044,-0.556C0.055,-0.584 0.078,-0.608 0.113,-0.628C0.148,-0.649 0.193,-0.66 0.249,-0.66C0.316,-0.66 0.366,-0.648 0.4,-0.624C0.434,-0.601 0.454,-0.572 0.461,-0.537C0.468,-0.503 0.471,-0.432 0.471,-0.325L0.471,-0L0.279,-0L0.279,-0.058C0.267,-0.035 0.252,-0.017 0.233,-0.006C0.214,0.006 0.191,0.012 0.165,0.012C0.13,0.012 0.098,0.002 0.07,-0.017C0.041,-0.037 0.026,-0.079 0.026,-0.145L0.026,-0.198C0.026,-0.246 0.034,-0.279 0.049,-0.297C0.065,-0.314 0.103,-0.335 0.163,-0.358C0.228,-0.384 0.263,-0.401 0.267,-0.41C0.272,-0.418 0.274,-0.436 0.274,-0.463C0.274,-0.497 0.271,-0.519 0.266,-0.53C0.261,-0.54 0.253,-0.545 0.241,-0.545C0.228,-0.545 0.22,-0.541 0.216,-0.532C0.213,-0.523 0.211,-0.501 0.211,-0.465L0.211,-0.397ZM0.274,-0.308C0.242,-0.285 0.224,-0.266 0.219,-0.25C0.214,-0.234 0.211,-0.212 0.211,-0.183C0.211,-0.149 0.214,-0.127 0.218,-0.118C0.222,-0.108 0.231,-0.103 0.244,-0.103C0.257,-0.103 0.265,-0.107 0.268,-0.115C0.272,-0.122 0.274,-0.142 0.274,-0.175L0.274,-0.308Z" style="fill:rgb(213,192,0);fill-rule:nonzero;"/>
                </g>
            </g>
        </g>
        <path d="M13.5,10.435L6.806,10.413L5.391,12.47L14.609,12.47L13.5,10.435Z" style="fill:rgb(213,192,0);"/>
        <g transform="matrix(3.23697,0,0,3.23697,-11.4327,-46.7509)">
            <g>
                <g transform="matrix(1,0,0,1,0.137705,-0.286087)">
                    <path d="M6.621,16.602C6.621,16.564 6.59,16.533 6.552,16.533L6.415,16.533C6.377,16.533 6.346,16.564 6.346,16.602L6.346,18.249C6.346,18.287 6.377,18.318 6.415,18.318L6.552,18.318C6.59,18.318 6.621,18.287 6.621,18.249L6.621,16.602Z"/>
                </g>
                <circle cx="6.621" cy="16.356" r="0.664" style="fill:rgb(247,223,30);"/>
            </g>
        </g>
    </g>
</svg>
