<?xml version="1.0" encoding="UTF-8" standalone="no"?>
<!DOCTYPE svg PUBLIC "-//W3C//DTD SVG 1.1//EN" "http://www.w3.org/Graphics/SVG/1.1/DTD/svg11.dtd">
<svg width="100%" height="100%" viewBox="0 0 20 20" version="1.1" xmlns="http://www.w3.org/2000/svg" xmlns:xlink="http://www.w3.org/1999/xlink" xml:space="preserve" xmlns:serif="http://www.serif.com/" style="fill-rule:evenodd;clip-rule:evenodd;stroke-linejoin:round;stroke-miterlimit:2;">
    <g transform="matrix(1,0,0,1,0,-1.30454)">
        <g transform="matrix(0.929527,0,0,1,0.379889,0)">
            <rect x="5.391" y="12.47" width="9.918" height="6.095" style="fill:rgb(247,223,30);"/>
            <g transform="matrix(0.015429,0,0,0.0143417,5.68511,9.62329)">
                <path d="M423.2,492.19C435.89,512.91 452.4,528.14 481.6,528.14C506.13,528.14 521.8,515.88 521.8,498.94C521.8,478.64 505.7,471.45 478.7,459.64L463.9,453.29C421.18,435.09 392.8,412.29 392.8,364.09C392.8,319.69 426.63,285.89 479.5,285.89C517.14,285.89 544.2,298.99 563.7,333.29L517.6,362.89C507.45,344.69 496.5,337.52 479.5,337.52C462.16,337.52 451.17,348.52 451.17,362.89C451.17,380.65 462.17,387.84 487.57,398.84L502.37,405.18C552.67,426.75 581.07,448.74 581.07,498.18C581.07,551.48 539.2,580.68 482.97,580.68C427.99,580.68 392.47,554.48 375.09,520.14L423.2,492.19ZM214.07,497.32C223.37,513.82 231.83,527.77 252.17,527.77C271.62,527.77 283.89,520.16 283.89,490.57L283.89,289.27L343.09,289.27L343.09,491.37C343.09,552.67 307.15,580.57 254.69,580.57C207.29,580.57 179.84,556.04 165.88,526.495L214.07,497.32Z" style="fill-rule:nonzero;"/>
            </g>
        </g>
        <path d="M13.5,10.435L6.806,10.413L5.391,12.47L14.609,12.47L13.5,10.435Z" style="fill:rgb(213,192,0);"/>
        <g transform="matrix(3.23697,0,0,3.23697,-11.4327,-46.7509)">
            <g>
                <g transform="matrix(1,0,0,1,0.137705,-0.286087)">
                    <path d="M6.621,16.602C6.621,16.564 6.59,16.533 6.552,16.533L6.415,16.533C6.377,16.533 6.346,16.564 6.346,16.602L6.346,18.249C6.346,18.287 6.377,18.318 6.415,18.318L6.552,18.318C6.59,18.318 6.621,18.287 6.621,18.249L6.621,16.602Z"/>
                </g>
                <circle cx="6.621" cy="16.356" r="0.664" style="fill:rgb(247,223,30);"/>
            </g>
        </g>
    </g>
    <g transform="matrix(1,0,0,1,0,-1.30454)">
        <g transform="matrix(0.929527,0,0,1,0.379889,0)">
            <rect x="5.391" y="12.47" width="9.918" height="6.095" style="fill:rgb(247,223,30);"/>
        </g>
        <path d="M13.5,10.435L6.806,10.413L5.391,12.47L14.609,12.47L13.5,10.435Z" style="fill:rgb(213,192,0);"/>
        <g transform="matrix(3.23697,0,0,3.23697,-11.4327,-46.7509)">
            <g>
                <g transform="matrix(1,0,0,1,0.137705,-0.286087)">
                    <path d="M6.621,16.602C6.621,16.564 6.59,16.533 6.552,16.533L6.415,16.533C6.377,16.533 6.346,16.564 6.346,16.602L6.346,18.249C6.346,18.287 6.377,18.318 6.415,18.318L6.552,18.318C6.59,18.318 6.621,18.287 6.621,18.249L6.621,16.602Z"/>
                </g>
                <circle cx="6.621" cy="16.356" r="0.664" style="fill:rgb(247,223,30);"/>
            </g>
        </g>
    </g>
</svg>
