<?xml version="1.0" standalone="no"?>
<!DOCTYPE svg PUBLIC "-//W3C//DTD SVG 20010904//EN"
 "http://www.w3.org/TR/2001/REC-SVG-20010904/DTD/svg10.dtd">
<svg version="1.0" xmlns="http://www.w3.org/2000/svg"
 width="700.000000pt" height="700.000000pt" viewBox="0 0 700.000000 700.000000"
 preserveAspectRatio="xMidYMid meet">
<metadata>
Created by potrace 1.11, written by Peter Selinger 2001-2013
</metadata>
<g transform="translate(0.000000,700.000000) scale(0.100000,-0.100000)"
fill="#000000" stroke="none">
<path d="M3717 6714 c-1 -1 -60 -4 -132 -8 -170 -8 -278 -22 -480 -61 -428
-82 -941 -300 -1325 -563 -413 -283 -748 -654 -904 -999 -40 -91 -75 -183 -88
-233 -26 -100 -30 -118 -33 -155 -3 -22 -7 -53 -11 -68 -8 -37 -8 -237 1 -307
35 -303 192 -512 451 -599 103 -34 245 -57 370 -60 96 -2 95 -4 54 79 -41 82
-58 145 -79 300 -10 70 -7 393 4 475 29 223 68 385 132 545 46 115 123 271
149 301 8 8 14 19 14 23 0 4 31 49 69 99 269 360 632 599 1113 731 101 28 106
29 198 46 53 10 75 14 130 24 14 3 54 8 90 12 36 3 99 9 140 13 76 8 452 6
502 -3 16 -2 47 -7 70 -11 76 -11 240 -66 318 -105 230 -116 398 -323 499
-616 32 -95 77 -291 86 -378 3 -28 7 -62 10 -76 5 -28 16 -155 21 -240 4 -73
4 -445 0 -540 -5 -121 -27 -366 -41 -460 -2 -14 -9 -61 -15 -105 -16 -113 -20
-137 -25 -165 -3 -14 -8 -36 -10 -50 -3 -14 -8 -41 -11 -60 -3 -19 -9 -51 -14
-70 -5 -19 -11 -53 -15 -75 -3 -22 -13 -67 -21 -100 -9 -33 -17 -67 -19 -75
-11 -55 -48 -199 -70 -275 -15 -49 -35 -119 -45 -155 -11 -36 -43 -135 -73
-220 -315 -904 -745 -1515 -1117 -1586 -185 -35 -387 58 -496 226 -16 25 -32
47 -36 50 -4 3 -25 45 -47 93 -59 126 -100 254 -127 401 -2 16 -6 32 -8 35 -2
3 -7 35 -11 71 -4 36 -9 67 -10 70 -26 42 -26 866 0 999 1 9 6 52 10 96 3 44
13 127 21 185 8 58 17 121 20 140 2 19 11 70 20 113 9 44 17 93 20 110 13 110
126 543 199 761 129 389 308 784 501 1106 38 63 71 119 73 124 6 14 170 255
218 320 24 33 40 63 36 67 -4 4 -48 16 -98 27 -244 55 -410 51 -612 -13 -494
-156 -916 -725 -1191 -1605 -32 -103 -84 -283 -88 -308 -3 -13 -16 -69 -30
-125 -13 -56 -31 -136 -39 -177 -8 -41 -17 -86 -20 -100 -21 -103 -66 -375
-79 -485 -23 -184 -40 -370 -52 -565 -10 -166 -10 -590 0 -715 9 -113 21 -212
31 -255 1 -3 5 -30 9 -60 4 -30 21 -106 37 -168 172 -656 561 -1002 1254
-1116 33 -6 107 -13 200 -21 73 -6 312 -7 340 -1 11 2 47 7 80 11 142 16 348
87 513 177 59 33 233 145 242 157 3 4 25 22 50 41 63 49 140 121 236 220 300
310 589 763 798 1255 26 61 53 124 61 140 7 17 29 75 49 130 21 55 40 107 43
115 4 8 7 17 8 20 0 3 20 61 42 130 80 240 161 553 208 795 25 126 56 336 70
470 3 33 8 74 10 90 22 164 22 654 0 835 -3 19 -7 60 -10 90 -7 65 -63 379
-70 391 -3 4 -17 47 -31 95 -84 291 -241 561 -439 758 -100 98 -233 199 -335
254 -25 14 -73 39 -108 58 -168 90 -500 187 -744 219 -35 4 -138 16 -183 20
-73 8 -423 23 -428 19z"/>
</g>
</svg>
