<svg xmlns="http://www.w3.org/2000/svg" width="100%" height="100%" viewBox="0 0 1000 1000" fill-rule="evenodd" stroke-linejoin="round" stroke-miterlimit="2" xmlns:v="https://vecta.io/nano">
    <style>
        #bg{fill:#fff;}
        #fg{fill:#000;}
        @media(prefers-color-scheme: dark){
            #bg{fill:#000;}
            #fg{fill:#fff;}
        }
    </style>
    <path id="bg" d="M63.862 750.789l334.276-.487 159.899-477.536-335.034-1.563L63.862 750.789zm141.039-54.898h81.98l120.351-372.015h-76.224L204.901 695.891zm382.96 54.094L731.1 323.876h76.224l-28.465 87.987h132.696l46.575-139.097-335.034-1.564-159.141 479.585 123.906-.803z"/>
    <path id="fg" d="M41.871 728.798l334.276-.487 159.899-477.536-335.034-1.563L41.871 728.798zM182.91 673.9h81.98l120.35-372.016h-76.224L182.91 673.9zm382.96 54.094l143.239-426.109h76.224l-28.465 87.987h132.696l46.575-139.097-335.034-1.564-159.141 479.585 123.906-.803z"/>
</svg>