<?xml version="1.0" encoding="UTF-8" standalone="no"?>
<!DOCTYPE svg PUBLIC "-//W3C//DTD SVG 1.1//EN" "http://www.w3.org/Graphics/SVG/1.1/DTD/svg11.dtd">
<svg width="100%" height="100%" viewBox="0 0 1000 1000" version="1.1" xmlns="http://www.w3.org/2000/svg" xmlns:xlink="http://www.w3.org/1999/xlink" xml:space="preserve" xmlns:serif="http://www.serif.com/" style="fill-rule:evenodd;clip-rule:evenodd;stroke-linejoin:round;stroke-miterlimit:2;">
    <g transform="matrix(1,0,0,1,-0.601187,-0.117071)">
        <g transform="matrix(1.22248,0,0,1.17867,-130.936,-103.211)">
            <path d="M139.388,703.434L412.829,703.021L543.628,297.873L269.567,296.547L139.388,703.434ZM254.759,656.858L321.819,656.858L420.267,341.235L357.915,341.235L254.759,656.858Z"/>
            <g transform="matrix(0.81801,0,0,0.848413,107.107,87.566)">
                <path d="M563.461,725.102L706.7,298.993L782.924,298.993L754.459,386.98L887.155,386.98L933.73,247.883L598.696,246.319L439.555,725.905L563.461,725.102Z"/>
            </g>
        </g>
        <g transform="matrix(1.22248,0,0,1.17867,-102.927,-75.202)">
            <path d="M139.388,703.434L412.829,703.021L543.628,297.873L269.567,296.547L139.388,703.434ZM254.759,656.858L321.819,656.858L420.267,341.235L357.915,341.235L254.759,656.858Z" style="fill:white;"/>
            <g transform="matrix(0.81801,0,0,0.848413,107.107,87.566)">
                <path d="M563.461,725.102L706.7,298.993L782.924,298.993L754.459,386.98L887.155,386.98L933.73,247.883L598.696,246.319L439.555,725.905L563.461,725.102Z" style="fill:white;"/>
            </g>
        </g>
    </g>
</svg>
