<?xml version="1.0" encoding="UTF-8" standalone="no"?>
<!DOCTYPE svg PUBLIC "-//W3C//DTD SVG 1.1//EN" "http://www.w3.org/Graphics/SVG/1.1/DTD/svg11.dtd">
<svg width="100%" height="100%" viewBox="0 0 200 200" version="1.1" xmlns="http://www.w3.org/2000/svg" xmlns:xlink="http://www.w3.org/1999/xlink" xml:space="preserve" xmlns:serif="http://www.serif.com/" style="fill-rule:evenodd;clip-rule:evenodd;stroke-linejoin:round;stroke-miterlimit:2;">
    <g transform="matrix(1,0,0,1,4.99047,-4.48757)">
        <g>
            <circle cx="95.01" cy="104.488" r="90.528" style="fill:rgb(255,49,49);"/>
            <clipPath id="_clip1">
                <circle cx="95.01" cy="104.488" r="90.528"/>
            </clipPath>
            <g clip-path="url(#_clip1)">
                <g transform="matrix(1,0,0,1,-5.02735,4.48757)">
                    <g>
                        <g transform="matrix(76.2853,0,0,76.2853,20.5022,88.315)">
                            <path d="M0.508,-0.531C0.454,-0.487 0.413,-0.422 0.385,-0.335C0.37,-0.288 0.362,-0.241 0.362,-0.192C0.362,-0.108 0.39,-0.066 0.445,-0.066C0.473,-0.066 0.502,-0.077 0.532,-0.101C0.562,-0.124 0.589,-0.154 0.613,-0.191C0.636,-0.228 0.656,-0.271 0.672,-0.322C0.687,-0.373 0.695,-0.424 0.695,-0.475C0.695,-0.546 0.682,-0.597 0.657,-0.627C0.631,-0.658 0.589,-0.673 0.529,-0.673C0.496,-0.673 0.46,-0.669 0.421,-0.662C0.383,-0.655 0.351,-0.647 0.324,-0.638C0.297,-0.63 0.274,-0.622 0.252,-0.615C0.231,-0.608 0.219,-0.604 0.216,-0.604C0.204,-0.604 0.198,-0.609 0.198,-0.619C0.198,-0.626 0.206,-0.637 0.222,-0.649C0.238,-0.662 0.26,-0.675 0.289,-0.689C0.318,-0.703 0.349,-0.715 0.384,-0.728C0.465,-0.756 0.545,-0.77 0.622,-0.77C0.771,-0.77 0.876,-0.726 0.938,-0.64C0.974,-0.589 0.992,-0.525 0.992,-0.45C0.992,-0.393 0.982,-0.34 0.962,-0.29C0.942,-0.24 0.914,-0.196 0.879,-0.159C0.843,-0.121 0.802,-0.089 0.754,-0.062C0.657,-0.008 0.548,0.02 0.425,0.02C0.186,0.02 0.066,-0.062 0.066,-0.226C0.066,-0.272 0.076,-0.316 0.096,-0.358C0.116,-0.4 0.142,-0.437 0.174,-0.468C0.206,-0.499 0.243,-0.526 0.283,-0.55C0.365,-0.597 0.448,-0.62 0.53,-0.62C0.543,-0.62 0.553,-0.618 0.558,-0.613C0.564,-0.608 0.567,-0.604 0.567,-0.599C0.567,-0.594 0.566,-0.59 0.565,-0.586C0.563,-0.583 0.56,-0.579 0.556,-0.574C0.552,-0.57 0.548,-0.566 0.545,-0.563C0.537,-0.555 0.525,-0.545 0.508,-0.531Z" style="fill:white;fill-rule:nonzero;"/>
                        </g>
                        <g transform="matrix(0.101666,0,0,0.101666,81.5443,67.8442)">
                            <g transform="matrix(204.87,0,0,204.87,41.2505,156.938)">
                                <path d="M0.177,-0.502L0.398,-0.508C0.407,-0.508 0.413,-0.505 0.417,-0.5C0.422,-0.495 0.424,-0.49 0.424,-0.483C0.424,-0.477 0.423,-0.466 0.42,-0.45C0.418,-0.435 0.417,-0.424 0.417,-0.417C0.477,-0.484 0.557,-0.518 0.657,-0.518C0.718,-0.518 0.766,-0.503 0.801,-0.471C0.836,-0.44 0.853,-0.396 0.853,-0.339C0.853,-0.229 0.81,-0.138 0.723,-0.068C0.824,-0.075 0.901,-0.094 0.955,-0.124C0.973,-0.134 0.986,-0.139 0.995,-0.139C1.006,-0.139 1.011,-0.133 1.011,-0.121C1.011,-0.113 1.005,-0.104 0.993,-0.095C0.938,-0.056 0.867,-0.028 0.78,-0.009C0.692,0.009 0.599,0.019 0.499,0.019C0.486,0.019 0.477,0.02 0.471,0.02C0.436,0.02 0.402,0.014 0.367,0.004C0.333,-0.007 0.304,-0.021 0.281,-0.04C0.259,0.029 0.248,0.108 0.248,0.198L0.248,0.212C0.248,0.228 0.232,0.236 0.201,0.236L-0.026,0.242C-0.034,0.242 -0.04,0.24 -0.045,0.235C-0.049,0.23 -0.052,0.225 -0.052,0.219C-0.052,0.164 -0.021,0.056 0.04,-0.105C0.1,-0.265 0.131,-0.372 0.131,-0.427L0.129,-0.467C0.129,-0.479 0.132,-0.488 0.138,-0.494C0.144,-0.5 0.157,-0.502 0.177,-0.502ZM0.513,-0.394C0.451,-0.394 0.4,-0.347 0.359,-0.253C0.34,-0.21 0.331,-0.176 0.331,-0.149C0.331,-0.122 0.336,-0.104 0.344,-0.094C0.353,-0.084 0.371,-0.079 0.397,-0.079C0.423,-0.079 0.452,-0.091 0.482,-0.115C0.513,-0.139 0.537,-0.17 0.556,-0.207C0.574,-0.243 0.583,-0.276 0.583,-0.306C0.583,-0.335 0.577,-0.357 0.564,-0.372C0.551,-0.387 0.534,-0.394 0.513,-0.394Z" style="fill:white;fill-rule:nonzero;"/>
                            </g>
                            <g transform="matrix(204.87,0,0,204.87,229.015,156.938)">
                                <path d="M0.485,-0.497L0.614,-0.514C0.638,-0.514 0.65,-0.504 0.65,-0.485C0.65,-0.466 0.639,-0.455 0.616,-0.45C0.593,-0.445 0.542,-0.439 0.461,-0.431C0.45,-0.402 0.434,-0.362 0.412,-0.311C0.366,-0.205 0.344,-0.142 0.344,-0.121C0.344,-0.097 0.358,-0.086 0.387,-0.086C0.479,-0.086 0.562,-0.101 0.636,-0.132C0.646,-0.137 0.655,-0.139 0.661,-0.139C0.673,-0.139 0.679,-0.134 0.679,-0.123C0.679,-0.112 0.671,-0.102 0.656,-0.091C0.608,-0.06 0.536,-0.033 0.439,-0.012C0.343,0.009 0.254,0.02 0.173,0.02C0.127,0.02 0.091,0.012 0.067,-0.002C0.042,-0.017 0.03,-0.037 0.03,-0.062C0.03,-0.088 0.047,-0.136 0.081,-0.206C0.119,-0.285 0.146,-0.354 0.163,-0.414C0.143,-0.413 0.129,-0.412 0.121,-0.412C0.102,-0.412 0.092,-0.42 0.092,-0.436C0.092,-0.447 0.095,-0.455 0.102,-0.458C0.108,-0.462 0.114,-0.465 0.121,-0.467C0.128,-0.468 0.133,-0.469 0.138,-0.47C0.143,-0.47 0.149,-0.471 0.158,-0.472C0.166,-0.472 0.172,-0.473 0.176,-0.473C0.181,-0.498 0.183,-0.521 0.183,-0.543L0.182,-0.562C0.182,-0.576 0.201,-0.586 0.238,-0.591C0.25,-0.593 0.289,-0.601 0.354,-0.616C0.42,-0.63 0.46,-0.638 0.475,-0.638C0.498,-0.638 0.51,-0.63 0.51,-0.613C0.51,-0.585 0.502,-0.547 0.485,-0.497Z" style="fill:white;fill-rule:nonzero;"/>
                            </g>
                            <g transform="matrix(204.87,0,0,204.87,348.756,156.938)">
                                <path d="M0.504,-0.688C0.504,-0.654 0.485,-0.623 0.446,-0.597C0.407,-0.572 0.367,-0.559 0.324,-0.559C0.281,-0.559 0.248,-0.567 0.224,-0.585C0.2,-0.602 0.188,-0.623 0.188,-0.648C0.188,-0.674 0.198,-0.696 0.216,-0.717C0.234,-0.737 0.258,-0.753 0.287,-0.765C0.316,-0.777 0.348,-0.783 0.382,-0.783C0.416,-0.783 0.445,-0.774 0.469,-0.756C0.492,-0.738 0.504,-0.715 0.504,-0.688ZM0.367,-0.083C0.389,-0.083 0.419,-0.088 0.457,-0.098C0.495,-0.109 0.522,-0.118 0.54,-0.127C0.557,-0.135 0.569,-0.139 0.576,-0.139C0.589,-0.139 0.596,-0.132 0.596,-0.119C0.596,-0.112 0.591,-0.105 0.581,-0.098C0.548,-0.073 0.488,-0.047 0.402,-0.021C0.316,0.006 0.239,0.02 0.171,0.02C0.129,0.02 0.094,0.013 0.065,-0C0.037,-0.014 0.023,-0.034 0.023,-0.062C0.023,-0.078 0.037,-0.119 0.065,-0.184C0.119,-0.306 0.146,-0.399 0.146,-0.461L0.145,-0.479C0.145,-0.496 0.161,-0.504 0.192,-0.504L0.434,-0.509C0.442,-0.509 0.448,-0.507 0.453,-0.502C0.457,-0.497 0.459,-0.491 0.459,-0.485C0.459,-0.462 0.449,-0.425 0.428,-0.374C0.408,-0.322 0.387,-0.271 0.367,-0.222C0.346,-0.172 0.336,-0.136 0.336,-0.115C0.336,-0.093 0.346,-0.083 0.367,-0.083Z" style="fill:white;fill-rule:nonzero;"/>
                            </g>
                            <g transform="matrix(204.87,0,0,204.87,451.491,156.938)">
                                <path d="M0.338,-0.319C0.323,-0.279 0.315,-0.242 0.315,-0.208C0.315,-0.175 0.319,-0.15 0.326,-0.134C0.333,-0.117 0.343,-0.104 0.356,-0.096C0.403,-0.066 0.495,-0.065 0.633,-0.091C0.698,-0.103 0.746,-0.114 0.776,-0.124C0.805,-0.134 0.823,-0.139 0.828,-0.139C0.84,-0.139 0.845,-0.134 0.845,-0.123C0.845,-0.111 0.837,-0.1 0.819,-0.089C0.774,-0.059 0.709,-0.034 0.626,-0.012C0.543,0.009 0.451,0.02 0.348,0.02C0.246,0.02 0.168,0.001 0.115,-0.035C0.062,-0.072 0.036,-0.122 0.036,-0.187C0.036,-0.227 0.044,-0.264 0.061,-0.3C0.078,-0.335 0.101,-0.366 0.13,-0.392C0.159,-0.419 0.193,-0.441 0.231,-0.46C0.309,-0.499 0.397,-0.518 0.495,-0.518C0.61,-0.518 0.69,-0.505 0.736,-0.479C0.742,-0.474 0.744,-0.466 0.744,-0.455C0.744,-0.443 0.739,-0.424 0.729,-0.397C0.719,-0.371 0.706,-0.346 0.689,-0.323C0.673,-0.3 0.658,-0.289 0.644,-0.289C0.63,-0.289 0.619,-0.296 0.611,-0.311C0.603,-0.326 0.596,-0.338 0.591,-0.347C0.585,-0.356 0.578,-0.367 0.568,-0.38C0.558,-0.393 0.549,-0.402 0.54,-0.409C0.532,-0.415 0.521,-0.421 0.509,-0.426C0.496,-0.431 0.481,-0.433 0.464,-0.433C0.446,-0.433 0.428,-0.428 0.41,-0.417C0.393,-0.407 0.378,-0.393 0.367,-0.376C0.355,-0.359 0.346,-0.34 0.338,-0.319Z" style="fill:white;fill-rule:nonzero;"/>
                            </g>
                            <g transform="matrix(204.87,0,0,204.87,605.244,156.938)">
                                <path d="M0.384,-0.104C0.445,-0.104 0.497,-0.151 0.538,-0.245C0.556,-0.288 0.566,-0.323 0.566,-0.35C0.566,-0.376 0.561,-0.395 0.552,-0.405C0.544,-0.415 0.526,-0.42 0.5,-0.42C0.474,-0.42 0.445,-0.408 0.415,-0.384C0.384,-0.359 0.36,-0.329 0.341,-0.292C0.323,-0.255 0.313,-0.222 0.313,-0.193C0.313,-0.163 0.32,-0.141 0.333,-0.126C0.346,-0.112 0.363,-0.104 0.384,-0.104ZM0.638,-0.518L0.862,-0.508C0.87,-0.508 0.877,-0.505 0.881,-0.5C0.885,-0.495 0.887,-0.49 0.887,-0.483C0.887,-0.46 0.877,-0.422 0.858,-0.37C0.838,-0.318 0.818,-0.267 0.799,-0.216C0.779,-0.165 0.769,-0.131 0.769,-0.115C0.769,-0.098 0.772,-0.088 0.777,-0.083C0.782,-0.078 0.791,-0.076 0.806,-0.076C0.82,-0.076 0.846,-0.083 0.884,-0.097C0.922,-0.111 0.948,-0.121 0.961,-0.128C0.975,-0.136 0.985,-0.139 0.992,-0.139C1.005,-0.139 1.011,-0.133 1.011,-0.122C1.011,-0.098 0.962,-0.066 0.865,-0.027C0.832,-0.014 0.792,-0.003 0.746,0.006C0.699,0.015 0.652,0.02 0.604,0.02C0.525,0.02 0.477,-0.006 0.46,-0.057C0.41,-0.006 0.341,0.02 0.255,0.02C0.196,0.02 0.147,0.005 0.106,-0.023C0.062,-0.054 0.04,-0.103 0.04,-0.169C0.04,-0.239 0.06,-0.303 0.102,-0.362C0.147,-0.428 0.207,-0.473 0.283,-0.498C0.325,-0.511 0.37,-0.518 0.418,-0.518C0.492,-0.518 0.55,-0.5 0.591,-0.463L0.591,-0.494C0.591,-0.51 0.607,-0.518 0.638,-0.518Z" style="fill:white;fill-rule:nonzero;"/>
                            </g>
                            <g transform="matrix(204.87,0,0,204.87,793.008,156.938)">
                                <path d="M0.26,-0.719L0.499,-0.725C0.507,-0.725 0.514,-0.722 0.518,-0.717C0.522,-0.712 0.524,-0.706 0.524,-0.7C0.524,-0.666 0.493,-0.567 0.431,-0.404C0.369,-0.241 0.337,-0.145 0.337,-0.116C0.337,-0.104 0.34,-0.095 0.345,-0.089C0.35,-0.083 0.358,-0.08 0.371,-0.08C0.409,-0.08 0.469,-0.098 0.551,-0.134C0.559,-0.137 0.567,-0.139 0.574,-0.139C0.588,-0.139 0.594,-0.134 0.594,-0.124C0.594,-0.115 0.588,-0.106 0.574,-0.096C0.561,-0.087 0.542,-0.076 0.519,-0.065C0.496,-0.054 0.467,-0.041 0.434,-0.028C0.4,-0.014 0.362,-0.003 0.32,0.006C0.277,0.015 0.233,0.02 0.186,0.02C0.139,0.02 0.102,0.013 0.074,0.001C0.046,-0.012 0.032,-0.035 0.032,-0.068C0.032,-0.092 0.062,-0.184 0.123,-0.344C0.145,-0.404 0.166,-0.466 0.185,-0.531C0.203,-0.596 0.213,-0.644 0.213,-0.676L0.212,-0.695C0.212,-0.711 0.228,-0.719 0.26,-0.719Z" style="fill:white;fill-rule:nonzero;"/>
                            </g>
                        </g>
                    </g>
                </g>
                <g transform="matrix(1.17798,0,0,1.17798,-56.6578,-6.80753)">
                    <path d="M128.752,16.562L206.67,172.398L50.835,172.398L128.752,16.562Z" style="fill:white;"/>
                    <clipPath id="_clip2">
                        <path d="M128.752,16.562L206.67,172.398L50.835,172.398L128.752,16.562Z"/>
                    </clipPath>
                    <g clip-path="url(#_clip2)">
                        <g transform="matrix(0.848914,0,0,0.848914,43.8298,9.5886)">
                            <g transform="matrix(76.2853,0,0,76.2853,20.5022,88.315)">
                                <path d="M0.508,-0.531C0.454,-0.487 0.413,-0.422 0.385,-0.335C0.37,-0.288 0.362,-0.241 0.362,-0.192C0.362,-0.108 0.39,-0.066 0.445,-0.066C0.473,-0.066 0.502,-0.077 0.532,-0.101C0.562,-0.124 0.589,-0.154 0.613,-0.191C0.636,-0.228 0.656,-0.271 0.672,-0.322C0.687,-0.373 0.695,-0.424 0.695,-0.475C0.695,-0.546 0.682,-0.597 0.657,-0.627C0.631,-0.658 0.589,-0.673 0.529,-0.673C0.496,-0.673 0.46,-0.669 0.421,-0.662C0.383,-0.655 0.351,-0.647 0.324,-0.638C0.297,-0.63 0.274,-0.622 0.252,-0.615C0.231,-0.608 0.219,-0.604 0.216,-0.604C0.204,-0.604 0.198,-0.609 0.198,-0.619C0.198,-0.626 0.206,-0.637 0.222,-0.649C0.238,-0.662 0.26,-0.675 0.289,-0.689C0.318,-0.703 0.349,-0.715 0.384,-0.728C0.465,-0.756 0.545,-0.77 0.622,-0.77C0.771,-0.77 0.876,-0.726 0.938,-0.64C0.974,-0.589 0.992,-0.525 0.992,-0.45C0.992,-0.393 0.982,-0.34 0.962,-0.29C0.942,-0.24 0.914,-0.196 0.879,-0.159C0.843,-0.121 0.802,-0.089 0.754,-0.062C0.657,-0.008 0.548,0.02 0.425,0.02C0.186,0.02 0.066,-0.062 0.066,-0.226C0.066,-0.272 0.076,-0.316 0.096,-0.358C0.116,-0.4 0.142,-0.437 0.174,-0.468C0.206,-0.499 0.243,-0.526 0.283,-0.55C0.365,-0.597 0.448,-0.62 0.53,-0.62C0.543,-0.62 0.553,-0.618 0.558,-0.613C0.564,-0.608 0.567,-0.604 0.567,-0.599C0.567,-0.594 0.566,-0.59 0.565,-0.586C0.563,-0.583 0.56,-0.579 0.556,-0.574C0.552,-0.57 0.548,-0.566 0.545,-0.563C0.537,-0.555 0.525,-0.545 0.508,-0.531Z" style="fill:rgb(193,38,38);fill-rule:nonzero;"/>
                            </g>
                            <g transform="matrix(0.101666,0,0,0.101666,81.5443,67.8442)">
                                <g transform="matrix(204.87,0,0,204.87,41.2505,156.938)">
                                    <path d="M0.177,-0.502L0.398,-0.508C0.407,-0.508 0.413,-0.505 0.417,-0.5C0.422,-0.495 0.424,-0.49 0.424,-0.483C0.424,-0.477 0.423,-0.466 0.42,-0.45C0.418,-0.435 0.417,-0.424 0.417,-0.417C0.477,-0.484 0.557,-0.518 0.657,-0.518C0.718,-0.518 0.766,-0.503 0.801,-0.471C0.836,-0.44 0.853,-0.396 0.853,-0.339C0.853,-0.229 0.81,-0.138 0.723,-0.068C0.824,-0.075 0.901,-0.094 0.955,-0.124C0.973,-0.134 0.986,-0.139 0.995,-0.139C1.006,-0.139 1.011,-0.133 1.011,-0.121C1.011,-0.113 1.005,-0.104 0.993,-0.095C0.938,-0.056 0.867,-0.028 0.78,-0.009C0.692,0.009 0.599,0.019 0.499,0.019C0.486,0.019 0.477,0.02 0.471,0.02C0.436,0.02 0.402,0.014 0.367,0.004C0.333,-0.007 0.304,-0.021 0.281,-0.04C0.259,0.029 0.248,0.108 0.248,0.198L0.248,0.212C0.248,0.228 0.232,0.236 0.201,0.236L-0.026,0.242C-0.034,0.242 -0.04,0.24 -0.045,0.235C-0.049,0.23 -0.052,0.225 -0.052,0.219C-0.052,0.164 -0.021,0.056 0.04,-0.105C0.1,-0.265 0.131,-0.372 0.131,-0.427L0.129,-0.467C0.129,-0.479 0.132,-0.488 0.138,-0.494C0.144,-0.5 0.157,-0.502 0.177,-0.502ZM0.513,-0.394C0.451,-0.394 0.4,-0.347 0.359,-0.253C0.34,-0.21 0.331,-0.176 0.331,-0.149C0.331,-0.122 0.336,-0.104 0.344,-0.094C0.353,-0.084 0.371,-0.079 0.397,-0.079C0.423,-0.079 0.452,-0.091 0.482,-0.115C0.513,-0.139 0.537,-0.17 0.556,-0.207C0.574,-0.243 0.583,-0.276 0.583,-0.306C0.583,-0.335 0.577,-0.357 0.564,-0.372C0.551,-0.387 0.534,-0.394 0.513,-0.394Z" style="fill:rgb(193,38,38);fill-rule:nonzero;"/>
                                </g>
                                <g transform="matrix(204.87,0,0,204.87,229.015,156.938)">
                                    <path d="M0.485,-0.497L0.614,-0.514C0.638,-0.514 0.65,-0.504 0.65,-0.485C0.65,-0.466 0.639,-0.455 0.616,-0.45C0.593,-0.445 0.542,-0.439 0.461,-0.431C0.45,-0.402 0.434,-0.362 0.412,-0.311C0.366,-0.205 0.344,-0.142 0.344,-0.121C0.344,-0.097 0.358,-0.086 0.387,-0.086C0.479,-0.086 0.562,-0.101 0.636,-0.132C0.646,-0.137 0.655,-0.139 0.661,-0.139C0.673,-0.139 0.679,-0.134 0.679,-0.123C0.679,-0.112 0.671,-0.102 0.656,-0.091C0.608,-0.06 0.536,-0.033 0.439,-0.012C0.343,0.009 0.254,0.02 0.173,0.02C0.127,0.02 0.091,0.012 0.067,-0.002C0.042,-0.017 0.03,-0.037 0.03,-0.062C0.03,-0.088 0.047,-0.136 0.081,-0.206C0.119,-0.285 0.146,-0.354 0.163,-0.414C0.143,-0.413 0.129,-0.412 0.121,-0.412C0.102,-0.412 0.092,-0.42 0.092,-0.436C0.092,-0.447 0.095,-0.455 0.102,-0.458C0.108,-0.462 0.114,-0.465 0.121,-0.467C0.128,-0.468 0.133,-0.469 0.138,-0.47C0.143,-0.47 0.149,-0.471 0.158,-0.472C0.166,-0.472 0.172,-0.473 0.176,-0.473C0.181,-0.498 0.183,-0.521 0.183,-0.543L0.182,-0.562C0.182,-0.576 0.201,-0.586 0.238,-0.591C0.25,-0.593 0.289,-0.601 0.354,-0.616C0.42,-0.63 0.46,-0.638 0.475,-0.638C0.498,-0.638 0.51,-0.63 0.51,-0.613C0.51,-0.585 0.502,-0.547 0.485,-0.497Z" style="fill:rgb(193,38,38);fill-rule:nonzero;"/>
                                </g>
                                <g transform="matrix(204.87,0,0,204.87,348.756,156.938)">
                                    <path d="M0.504,-0.688C0.504,-0.654 0.485,-0.623 0.446,-0.597C0.407,-0.572 0.367,-0.559 0.324,-0.559C0.281,-0.559 0.248,-0.567 0.224,-0.585C0.2,-0.602 0.188,-0.623 0.188,-0.648C0.188,-0.674 0.198,-0.696 0.216,-0.717C0.234,-0.737 0.258,-0.753 0.287,-0.765C0.316,-0.777 0.348,-0.783 0.382,-0.783C0.416,-0.783 0.445,-0.774 0.469,-0.756C0.492,-0.738 0.504,-0.715 0.504,-0.688ZM0.367,-0.083C0.389,-0.083 0.419,-0.088 0.457,-0.098C0.495,-0.109 0.522,-0.118 0.54,-0.127C0.557,-0.135 0.569,-0.139 0.576,-0.139C0.589,-0.139 0.596,-0.132 0.596,-0.119C0.596,-0.112 0.591,-0.105 0.581,-0.098C0.548,-0.073 0.488,-0.047 0.402,-0.021C0.316,0.006 0.239,0.02 0.171,0.02C0.129,0.02 0.094,0.013 0.065,-0C0.037,-0.014 0.023,-0.034 0.023,-0.062C0.023,-0.078 0.037,-0.119 0.065,-0.184C0.119,-0.306 0.146,-0.399 0.146,-0.461L0.145,-0.479C0.145,-0.496 0.161,-0.504 0.192,-0.504L0.434,-0.509C0.442,-0.509 0.448,-0.507 0.453,-0.502C0.457,-0.497 0.459,-0.491 0.459,-0.485C0.459,-0.462 0.449,-0.425 0.428,-0.374C0.408,-0.322 0.387,-0.271 0.367,-0.222C0.346,-0.172 0.336,-0.136 0.336,-0.115C0.336,-0.093 0.346,-0.083 0.367,-0.083Z" style="fill:rgb(193,38,38);fill-rule:nonzero;"/>
                                </g>
                                <g transform="matrix(204.87,0,0,204.87,451.491,156.938)">
                                    <path d="M0.338,-0.319C0.323,-0.279 0.315,-0.242 0.315,-0.208C0.315,-0.175 0.319,-0.15 0.326,-0.134C0.333,-0.117 0.343,-0.104 0.356,-0.096C0.403,-0.066 0.495,-0.065 0.633,-0.091C0.698,-0.103 0.746,-0.114 0.776,-0.124C0.805,-0.134 0.823,-0.139 0.828,-0.139C0.84,-0.139 0.845,-0.134 0.845,-0.123C0.845,-0.111 0.837,-0.1 0.819,-0.089C0.774,-0.059 0.709,-0.034 0.626,-0.012C0.543,0.009 0.451,0.02 0.348,0.02C0.246,0.02 0.168,0.001 0.115,-0.035C0.062,-0.072 0.036,-0.122 0.036,-0.187C0.036,-0.227 0.044,-0.264 0.061,-0.3C0.078,-0.335 0.101,-0.366 0.13,-0.392C0.159,-0.419 0.193,-0.441 0.231,-0.46C0.309,-0.499 0.397,-0.518 0.495,-0.518C0.61,-0.518 0.69,-0.505 0.736,-0.479C0.742,-0.474 0.744,-0.466 0.744,-0.455C0.744,-0.443 0.739,-0.424 0.729,-0.397C0.719,-0.371 0.706,-0.346 0.689,-0.323C0.673,-0.3 0.658,-0.289 0.644,-0.289C0.63,-0.289 0.619,-0.296 0.611,-0.311C0.603,-0.326 0.596,-0.338 0.591,-0.347C0.585,-0.356 0.578,-0.367 0.568,-0.38C0.558,-0.393 0.549,-0.402 0.54,-0.409C0.532,-0.415 0.521,-0.421 0.509,-0.426C0.496,-0.431 0.481,-0.433 0.464,-0.433C0.446,-0.433 0.428,-0.428 0.41,-0.417C0.393,-0.407 0.378,-0.393 0.367,-0.376C0.355,-0.359 0.346,-0.34 0.338,-0.319Z" style="fill:rgb(193,38,38);fill-rule:nonzero;"/>
                                </g>
                                <g transform="matrix(204.87,0,0,204.87,605.244,156.938)">
                                    <path d="M0.384,-0.104C0.445,-0.104 0.497,-0.151 0.538,-0.245C0.556,-0.288 0.566,-0.323 0.566,-0.35C0.566,-0.376 0.561,-0.395 0.552,-0.405C0.544,-0.415 0.526,-0.42 0.5,-0.42C0.474,-0.42 0.445,-0.408 0.415,-0.384C0.384,-0.359 0.36,-0.329 0.341,-0.292C0.323,-0.255 0.313,-0.222 0.313,-0.193C0.313,-0.163 0.32,-0.141 0.333,-0.126C0.346,-0.112 0.363,-0.104 0.384,-0.104ZM0.638,-0.518L0.862,-0.508C0.87,-0.508 0.877,-0.505 0.881,-0.5C0.885,-0.495 0.887,-0.49 0.887,-0.483C0.887,-0.46 0.877,-0.422 0.858,-0.37C0.838,-0.318 0.818,-0.267 0.799,-0.216C0.779,-0.165 0.769,-0.131 0.769,-0.115C0.769,-0.098 0.772,-0.088 0.777,-0.083C0.782,-0.078 0.791,-0.076 0.806,-0.076C0.82,-0.076 0.846,-0.083 0.884,-0.097C0.922,-0.111 0.948,-0.121 0.961,-0.128C0.975,-0.136 0.985,-0.139 0.992,-0.139C1.005,-0.139 1.011,-0.133 1.011,-0.122C1.011,-0.098 0.962,-0.066 0.865,-0.027C0.832,-0.014 0.792,-0.003 0.746,0.006C0.699,0.015 0.652,0.02 0.604,0.02C0.525,0.02 0.477,-0.006 0.46,-0.057C0.41,-0.006 0.341,0.02 0.255,0.02C0.196,0.02 0.147,0.005 0.106,-0.023C0.062,-0.054 0.04,-0.103 0.04,-0.169C0.04,-0.239 0.06,-0.303 0.102,-0.362C0.147,-0.428 0.207,-0.473 0.283,-0.498C0.325,-0.511 0.37,-0.518 0.418,-0.518C0.492,-0.518 0.55,-0.5 0.591,-0.463L0.591,-0.494C0.591,-0.51 0.607,-0.518 0.638,-0.518Z" style="fill:rgb(193,38,38);fill-rule:nonzero;"/>
                                </g>
                                <g transform="matrix(204.87,0,0,204.87,793.008,156.938)">
                                    <path d="M0.26,-0.719L0.499,-0.725C0.507,-0.725 0.514,-0.722 0.518,-0.717C0.522,-0.712 0.524,-0.706 0.524,-0.7C0.524,-0.666 0.493,-0.567 0.431,-0.404C0.369,-0.241 0.337,-0.145 0.337,-0.116C0.337,-0.104 0.34,-0.095 0.345,-0.089C0.35,-0.083 0.358,-0.08 0.371,-0.08C0.409,-0.08 0.469,-0.098 0.551,-0.134C0.559,-0.137 0.567,-0.139 0.574,-0.139C0.588,-0.139 0.594,-0.134 0.594,-0.124C0.594,-0.115 0.588,-0.106 0.574,-0.096C0.561,-0.087 0.542,-0.076 0.519,-0.065C0.496,-0.054 0.467,-0.041 0.434,-0.028C0.4,-0.014 0.362,-0.003 0.32,0.006C0.277,0.015 0.233,0.02 0.186,0.02C0.139,0.02 0.102,0.013 0.074,0.001C0.046,-0.012 0.032,-0.035 0.032,-0.068C0.032,-0.092 0.062,-0.184 0.123,-0.344C0.145,-0.404 0.166,-0.466 0.185,-0.531C0.203,-0.596 0.213,-0.644 0.213,-0.676L0.212,-0.695C0.212,-0.711 0.228,-0.719 0.26,-0.719Z" style="fill:rgb(193,38,38);fill-rule:nonzero;"/>
                                </g>
                            </g>
                        </g>
                        <g transform="matrix(0.848911,0,0,0.848911,25.829,9.58853)">
                            <g transform="matrix(76.2853,0,0,76.2853,61.7456,158.186)">
                                <path d="M0.485,-0.305L0.461,-0.304C0.439,-0.242 0.422,-0.188 0.408,-0.142C0.395,-0.096 0.384,-0.066 0.375,-0.052C0.367,-0.039 0.358,-0.028 0.348,-0.019C0.339,-0.011 0.326,-0.005 0.312,-0C0.287,0.006 0.253,0.01 0.211,0.01C0.169,0.01 0.128,0.005 0.089,-0.004C0.05,-0.014 0.019,-0.025 -0.004,-0.039C-0.027,-0.053 -0.039,-0.067 -0.039,-0.08C-0.039,-0.087 -0.035,-0.093 -0.029,-0.097C-0.023,-0.102 -0.015,-0.104 -0.007,-0.104C0.023,-0.104 0.045,-0.109 0.059,-0.118C0.073,-0.128 0.087,-0.146 0.1,-0.171C0.112,-0.197 0.125,-0.227 0.137,-0.261C0.15,-0.295 0.162,-0.326 0.173,-0.355C0.184,-0.384 0.196,-0.414 0.21,-0.444C0.241,-0.509 0.279,-0.552 0.324,-0.574C0.346,-0.585 0.375,-0.593 0.411,-0.598C0.447,-0.604 0.475,-0.607 0.496,-0.607C0.516,-0.607 0.529,-0.607 0.535,-0.606C0.541,-0.606 0.548,-0.605 0.554,-0.603C0.566,-0.6 0.573,-0.593 0.573,-0.582C0.573,-0.575 0.571,-0.568 0.569,-0.563C0.566,-0.557 0.558,-0.543 0.545,-0.52C0.532,-0.498 0.509,-0.442 0.478,-0.352C0.65,-0.372 0.737,-0.435 0.737,-0.542C0.737,-0.577 0.726,-0.604 0.703,-0.622C0.68,-0.64 0.657,-0.651 0.633,-0.655C0.597,-0.661 0.558,-0.664 0.516,-0.664C0.473,-0.664 0.429,-0.66 0.383,-0.652C0.337,-0.644 0.301,-0.635 0.275,-0.625C0.25,-0.616 0.227,-0.607 0.207,-0.599C0.187,-0.591 0.174,-0.587 0.168,-0.587C0.151,-0.587 0.143,-0.593 0.143,-0.604C0.143,-0.618 0.152,-0.631 0.17,-0.643C0.235,-0.684 0.309,-0.716 0.392,-0.737C0.475,-0.759 0.579,-0.77 0.704,-0.77C0.768,-0.77 0.821,-0.763 0.864,-0.75C0.907,-0.737 0.94,-0.723 0.963,-0.708C0.986,-0.694 1.005,-0.675 1.02,-0.651C1.034,-0.627 1.042,-0.601 1.042,-0.573C1.042,-0.544 1.036,-0.519 1.025,-0.498C1.015,-0.476 1,-0.458 0.981,-0.442C0.962,-0.427 0.939,-0.413 0.91,-0.4C0.861,-0.379 0.794,-0.362 0.709,-0.349C0.774,-0.349 0.825,-0.338 0.862,-0.315C0.9,-0.293 0.918,-0.262 0.918,-0.222L0.91,-0.135C0.91,-0.111 0.922,-0.098 0.945,-0.095C0.955,-0.093 0.965,-0.092 0.976,-0.091C0.999,-0.089 1.011,-0.08 1.011,-0.063C1.011,-0.041 0.984,-0.022 0.928,-0.005C0.873,0.011 0.813,0.02 0.747,0.02C0.623,0.02 0.561,-0.017 0.561,-0.089C0.561,-0.107 0.566,-0.132 0.577,-0.165C0.588,-0.197 0.593,-0.219 0.593,-0.23C0.593,-0.25 0.585,-0.268 0.568,-0.283C0.551,-0.297 0.523,-0.305 0.485,-0.305Z" style="fill:rgb(193,38,38);fill-rule:nonzero;"/>
                            </g>
                            <g transform="matrix(0.101666,0,0,0.101666,131.452,140.894)">
                                <g transform="matrix(204.87,0,0,204.87,41.2505,156.938)">
                                    <path d="M0.384,-0.104C0.445,-0.104 0.497,-0.151 0.538,-0.245C0.556,-0.288 0.566,-0.323 0.566,-0.35C0.566,-0.376 0.561,-0.395 0.552,-0.405C0.544,-0.415 0.526,-0.42 0.5,-0.42C0.474,-0.42 0.445,-0.408 0.415,-0.384C0.384,-0.359 0.36,-0.329 0.341,-0.292C0.323,-0.255 0.313,-0.222 0.313,-0.193C0.313,-0.163 0.32,-0.141 0.333,-0.126C0.346,-0.112 0.363,-0.104 0.384,-0.104ZM0.638,-0.518L0.862,-0.508C0.87,-0.508 0.877,-0.505 0.881,-0.5C0.885,-0.495 0.887,-0.49 0.887,-0.483C0.887,-0.46 0.877,-0.422 0.858,-0.37C0.838,-0.318 0.818,-0.267 0.799,-0.216C0.779,-0.165 0.769,-0.131 0.769,-0.115C0.769,-0.098 0.772,-0.088 0.777,-0.083C0.782,-0.078 0.791,-0.076 0.806,-0.076C0.82,-0.076 0.846,-0.083 0.884,-0.097C0.922,-0.111 0.948,-0.121 0.961,-0.128C0.975,-0.136 0.985,-0.139 0.992,-0.139C1.005,-0.139 1.011,-0.133 1.011,-0.122C1.011,-0.098 0.962,-0.066 0.865,-0.027C0.832,-0.014 0.792,-0.003 0.746,0.006C0.699,0.015 0.652,0.02 0.604,0.02C0.525,0.02 0.477,-0.006 0.46,-0.057C0.41,-0.006 0.341,0.02 0.255,0.02C0.196,0.02 0.147,0.005 0.106,-0.023C0.062,-0.054 0.04,-0.103 0.04,-0.169C0.04,-0.239 0.06,-0.303 0.102,-0.362C0.147,-0.428 0.207,-0.473 0.283,-0.498C0.325,-0.511 0.37,-0.518 0.418,-0.518C0.492,-0.518 0.55,-0.5 0.591,-0.463L0.591,-0.494C0.591,-0.51 0.607,-0.518 0.638,-0.518Z" style="fill:rgb(193,38,38);fill-rule:nonzero;"/>
                                </g>
                                <g transform="matrix(204.87,0,0,204.87,229.015,156.938)">
                                    <path d="M0.52,-0.462C0.546,-0.497 0.565,-0.515 0.576,-0.515C0.588,-0.515 0.615,-0.512 0.655,-0.506C0.696,-0.499 0.736,-0.49 0.778,-0.477C0.819,-0.465 0.839,-0.452 0.839,-0.439C0.839,-0.423 0.827,-0.402 0.802,-0.376C0.747,-0.318 0.64,-0.232 0.479,-0.117C0.458,-0.102 0.442,-0.09 0.434,-0.084C0.488,-0.08 0.541,-0.078 0.592,-0.078C0.697,-0.078 0.786,-0.094 0.86,-0.125C0.884,-0.134 0.9,-0.139 0.909,-0.139C0.921,-0.139 0.927,-0.134 0.927,-0.123C0.927,-0.108 0.895,-0.083 0.83,-0.049C0.802,-0.034 0.766,-0.02 0.724,-0.006C0.682,0.008 0.644,0.015 0.61,0.015C0.576,0.015 0.544,0.012 0.513,0.008C0.482,0.003 0.457,-0.002 0.439,-0.007C0.422,-0.012 0.406,-0.017 0.392,-0.021C0.378,-0.026 0.369,-0.028 0.367,-0.028C0.365,-0.028 0.359,-0.025 0.35,-0.017C0.321,0.005 0.299,0.017 0.284,0.017C0.268,0.017 0.234,0.011 0.18,0.001C0.126,-0.01 0.081,-0.02 0.044,-0.029C0.008,-0.038 -0.011,-0.055 -0.011,-0.079C-0.011,-0.089 -0.006,-0.098 0.003,-0.107C0.012,-0.116 0.029,-0.128 0.053,-0.142C0.077,-0.156 0.105,-0.172 0.136,-0.189C0.221,-0.236 0.323,-0.302 0.441,-0.387C0.425,-0.388 0.405,-0.389 0.382,-0.389C0.358,-0.389 0.332,-0.385 0.303,-0.378C0.275,-0.372 0.25,-0.363 0.23,-0.353C0.21,-0.343 0.192,-0.333 0.175,-0.323C0.137,-0.3 0.114,-0.288 0.107,-0.288C0.1,-0.288 0.094,-0.291 0.09,-0.296C0.085,-0.301 0.083,-0.309 0.083,-0.318C0.083,-0.328 0.094,-0.358 0.115,-0.407C0.137,-0.456 0.153,-0.486 0.164,-0.496C0.175,-0.507 0.186,-0.513 0.197,-0.515C0.207,-0.517 0.222,-0.518 0.242,-0.518C0.262,-0.518 0.31,-0.506 0.385,-0.481C0.461,-0.457 0.5,-0.444 0.503,-0.444C0.506,-0.444 0.512,-0.45 0.52,-0.462Z" style="fill:rgb(193,38,38);fill-rule:nonzero;"/>
                                </g>
                                <g transform="matrix(204.87,0,0,204.87,399.573,156.938)">
                                    <path d="M0.828,-0.139C0.84,-0.139 0.845,-0.134 0.845,-0.123C0.845,-0.113 0.837,-0.103 0.822,-0.094C0.807,-0.085 0.787,-0.075 0.765,-0.065C0.742,-0.055 0.71,-0.043 0.67,-0.029C0.578,0.003 0.474,0.02 0.358,0.02C0.138,0.02 0.028,-0.048 0.028,-0.184C0.028,-0.25 0.049,-0.308 0.091,-0.36C0.133,-0.411 0.189,-0.45 0.259,-0.477C0.33,-0.504 0.406,-0.518 0.489,-0.518C0.572,-0.518 0.633,-0.505 0.672,-0.479C0.71,-0.454 0.729,-0.418 0.729,-0.374C0.729,-0.327 0.711,-0.29 0.674,-0.26C0.637,-0.231 0.588,-0.209 0.527,-0.195C0.465,-0.181 0.395,-0.17 0.315,-0.165C0.321,-0.114 0.357,-0.083 0.424,-0.07C0.441,-0.067 0.459,-0.066 0.479,-0.066C0.555,-0.066 0.665,-0.089 0.808,-0.135C0.817,-0.138 0.824,-0.139 0.828,-0.139ZM0.316,-0.218C0.373,-0.234 0.417,-0.258 0.45,-0.29C0.483,-0.322 0.5,-0.361 0.5,-0.407C0.5,-0.419 0.496,-0.428 0.488,-0.436C0.48,-0.443 0.468,-0.446 0.452,-0.446C0.437,-0.446 0.42,-0.439 0.403,-0.426C0.386,-0.412 0.372,-0.394 0.36,-0.372C0.335,-0.326 0.32,-0.275 0.316,-0.218Z" style="fill:rgb(193,38,38);fill-rule:nonzero;"/>
                                </g>
                            </g>
                        </g>
                    </g>
                </g>
            </g>
        </g>
    </g>
</svg>
